<svg height='300px' width='300px'  fill="#FFFFFF" xmlns="http://www.w3.org/2000/svg" xmlns:xlink="http://www.w3.org/1999/xlink" version="1.1" x="0px" y="0px" viewBox="0 0 500 500" enable-background="new 0 0 500 500" xml:space="preserve"><g><g><circle cx="118.1" cy="250" r="61.3"></circle><g><path d="M164.5,250c0,1.4,0,2.8-0.1,4.2c-0.1,1-0.5,4.1-0.1,1.5c-0.5,3.1-1.2,6.2-2.2,9.2     c-0.4,1.3-0.9,2.5-1.4,3.8c0.9-2.4-0.2,0.4-0.7,1.3c-1.4,2.8-3,5.3-4.7,7.9c-1.5,2.3,1-0.9-0.9,1.1c-0.9,1-1.7,2-2.6,2.9     c-0.9,0.9-1.8,1.9-2.8,2.7c-0.5,0.4-1,0.9-1.5,1.3c-0.2,0.2-2.3,1.9-1,0.9c1.1-0.8-1.7,1.2-2.2,1.5c-1.3,0.8-2.6,1.6-3.9,2.4     c-1.2,0.6-2.3,1.2-3.5,1.8c-0.2,0.1-2.2,1-0.6,0.3c1.5-0.7-1,0.4-1.3,0.5c-2.5,0.9-5.1,1.7-7.8,2.2c-0.6,0.1-4.2,0.7-2.7,0.5     c1.9-0.3-1,0.1-1.4,0.1c-0.9,0.1-1.9,0.1-2.8,0.2c-2.8,0.1-5.6,0-8.4-0.3c-1.8-0.2,0.3,0.1,0.6,0.1c-0.7-0.1-1.3-0.2-2-0.4     c-1.6-0.3-3.1-0.7-4.6-1.1c-1.5-0.4-3-0.9-4.5-1.4c-0.6-0.2-1.3-0.5-1.9-0.7c0.2,0.1,2.1,1,0.5,0.2c-2.6-1.3-5.1-2.6-7.5-4.1     c-1.1-0.7-2.2-1.5-3.2-2.2c2,1.5-0.3-0.3-1-0.9c-2.3-2-4.3-4.3-6.4-6.5c-1.8-2,0.7,1.2-0.9-1.1c-0.7-1.1-1.5-2.2-2.2-3.3     c-0.7-1.1-1.3-2.3-2-3.4c-0.5-0.9-2.3-5-1.3-2.4c-1-2.5-1.8-5-2.5-7.6c-0.3-1.3-0.6-2.6-0.9-4c0-0.2-0.4-2.4-0.1-0.7     c0.2,1.7-0.1-1.1-0.1-1.4c-0.2-3-0.3-6.1-0.1-9.1c0.1-1,0.5-4.1,0.1-1.5c0.3-1.6,0.6-3.1,0.9-4.7c0.6-2.6,1.4-5.2,2.4-7.7     c0.6-1.6-0.1,0.3-0.2,0.5c0.4-0.8,0.7-1.6,1.1-2.4c0.7-1.4,1.4-2.7,2.2-4c0.7-1.1,1.4-2.2,2.1-3.3c0.4-0.5,0.8-1.1,1.1-1.6     c-0.1,0.2-1.4,1.7-0.3,0.5c2-2.3,4-4.6,6.3-6.6c0.4-0.4,3.1-2.6,2-1.8c-1.1,0.8,1.7-1.2,2.2-1.5c2.4-1.6,4.9-2.9,7.5-4.2     c2.5-1.3-1.3,0.3,1.3-0.6c1.5-0.5,2.9-1,4.5-1.5c1.3-0.4,2.6-0.7,3.9-1c0.9-0.2,4.9-0.8,2.1-0.5c2.8-0.3,5.6-0.4,8.4-0.4     c1.6,0,3.2,0.2,4.9,0.3c1.8,0.2-0.3-0.1-0.6-0.1c0.9,0.2,1.8,0.3,2.7,0.5c3.1,0.6,6.1,1.6,9,2.6c0.2,0.1,2.2,0.9,0.7,0.2     c-1.5-0.7,1,0.5,1.2,0.6c1.6,0.8,3.1,1.6,4.6,2.5c1.3,0.8,2.6,1.7,3.9,2.5c0.2,0.1,1.9,1.4,0.6,0.4c-1.3-1,0.8,0.7,1,0.9     c2.3,2,4.4,4.2,6.5,6.5c0.4,0.5,0.8,1,1.3,1.5c-1.3-1.6-0.3-0.3,0.4,0.6c0.9,1.3,1.7,2.6,2.5,3.9c0.8,1.3,1.5,2.7,2.2,4.1     c0.3,0.6,0.6,1.2,0.8,1.8c-0.6-1.3-0.4-1.2,0,0.1c1.1,3.2,2.1,6.4,2.7,9.7c0.1,0.7,0.2,1.3,0.4,2c-0.3-1.5-0.1-1.3,0,0.1     C164.3,246.3,164.4,248.1,164.5,250c0.1,7.8,6.8,15.4,15,15c8.1-0.4,15.1-6.6,15-15c-0.4-32.5-20.6-60.7-50.9-72     c-29-10.8-64.2-1.1-83.7,22.8c-20.3,24.9-24,60.3-7.2,88.2c16.8,28,49.5,41.7,81.3,35.6c35.2-6.8,60.3-39.4,60.7-74.7     c0.1-7.8-7-15.4-15-15C171.3,235.4,164.6,241.6,164.5,250z"></path></g></g><g><g><circle cx="381.7" cy="97.1" r="61.3"></circle><g><path d="M428,97.1c0,1.4,0,2.8-0.1,4.2c-0.1,1-0.5,4.1-0.1,1.5c-0.5,3.1-1.2,6.2-2.2,9.2      c-0.4,1.3-0.9,2.5-1.4,3.8c0.9-2.4-0.2,0.4-0.7,1.3c-1.4,2.8-3,5.3-4.7,7.9c-1.5,2.3,1-0.9-0.9,1.1c-0.9,1-1.7,2-2.6,2.9      c-0.9,0.9-1.8,1.9-2.8,2.7c-0.5,0.4-1,0.9-1.5,1.3c-0.2,0.2-2.3,1.9-1,0.9c1.1-0.8-1.7,1.2-2.2,1.5c-1.3,0.8-2.6,1.6-3.9,2.4      c-1.2,0.6-2.3,1.2-3.5,1.8c-0.2,0.1-2.2,1-0.6,0.3c1.5-0.7-1,0.4-1.3,0.5c-2.5,0.9-5.1,1.7-7.8,2.2c-0.6,0.1-4.2,0.7-2.7,0.5      c1.9-0.3-1,0.1-1.4,0.1c-0.9,0.1-1.9,0.1-2.8,0.2c-2.8,0.1-5.6,0-8.4-0.3c-1.8-0.2,0.3,0.1,0.6,0.1c-0.7-0.1-1.3-0.2-2-0.4      c-1.6-0.3-3.1-0.7-4.6-1.1c-1.5-0.4-3-0.9-4.5-1.4c-0.6-0.2-1.3-0.5-1.9-0.7c0.2,0.1,2.1,1,0.5,0.2c-2.6-1.3-5.1-2.6-7.5-4.1      c-1.1-0.7-2.2-1.5-3.2-2.2c2,1.5-0.3-0.3-1-0.9c-2.3-2-4.3-4.3-6.4-6.5c-1.8-2,0.7,1.2-0.9-1.1c-0.7-1.1-1.5-2.2-2.2-3.3      c-0.7-1.1-1.3-2.3-2-3.4c-0.5-0.9-2.3-5-1.3-2.4c-1-2.5-1.8-5-2.5-7.6c-0.3-1.3-0.6-2.6-0.9-4c0-0.2-0.4-2.4-0.1-0.7      c0.2,1.7-0.1-1.1-0.1-1.4c-0.2-3-0.3-6.1-0.1-9.1c0.1-1,0.5-4.1,0.1-1.5c0.3-1.6,0.6-3.1,0.9-4.7c0.6-2.6,1.4-5.2,2.4-7.7      c0.6-1.6-0.1,0.3-0.2,0.5c0.4-0.8,0.7-1.6,1.1-2.4c0.7-1.4,1.4-2.7,2.2-4c0.7-1.1,1.4-2.2,2.1-3.3c0.4-0.5,0.8-1.1,1.1-1.6      c-0.1,0.2-1.4,1.7-0.3,0.5c2-2.3,4-4.6,6.3-6.6c0.4-0.4,3.1-2.6,2-1.8c-1.1,0.8,1.7-1.2,2.2-1.5c2.4-1.6,4.9-2.9,7.5-4.2      c2.5-1.3-1.3,0.3,1.3-0.6c1.5-0.5,2.9-1,4.5-1.5c1.3-0.4,2.6-0.7,3.9-1c0.9-0.2,4.9-0.8,2.1-0.5c2.8-0.3,5.6-0.4,8.4-0.4      c1.6,0,3.2,0.2,4.9,0.3c1.8,0.2-0.3-0.1-0.6-0.1c0.9,0.2,1.8,0.3,2.7,0.5c3.1,0.6,6.1,1.6,9,2.6c0.2,0.1,2.2,0.9,0.7,0.2      c-1.5-0.7,1,0.5,1.2,0.6c1.6,0.8,3.1,1.6,4.6,2.5c1.3,0.8,2.6,1.7,3.9,2.5c0.2,0.1,1.9,1.4,0.6,0.4c-1.3-1,0.8,0.7,1,0.9      c2.3,2,4.4,4.2,6.5,6.5c0.4,0.5,0.8,1,1.3,1.5c-1.3-1.6-0.3-0.3,0.4,0.6c0.9,1.3,1.7,2.6,2.5,3.9c0.8,1.3,1.5,2.7,2.2,4.1      c0.3,0.6,0.6,1.2,0.8,1.8c-0.6-1.3-0.4-1.2,0,0.1c1.1,3.2,2.1,6.4,2.7,9.7c0.1,0.7,0.2,1.3,0.4,2c-0.3-1.5-0.1-1.3,0,0.1      C427.9,93.4,428,95.2,428,97.1c0.1,7.8,6.8,15.4,15,15c8.1-0.4,15.1-6.6,15-15c-0.4-32.5-20.6-60.7-50.9-72      c-29-10.8-64.2-1.1-83.7,22.8c-20.3,24.9-24,60.3-7.2,88.2c16.8,28,49.5,41.7,81.3,35.6c35.2-6.8,60.3-39.4,60.7-74.7      c0.1-7.8-7-15.4-15-15C434.8,82.5,428.1,88.7,428,97.1z"></path></g></g><g><circle cx="381.7" cy="403" r="61.3"></circle><g><path d="M428,403c0,1.4,0,2.8-0.1,4.2c-0.1,1-0.5,4.1-0.1,1.5c-0.5,3.1-1.2,6.2-2.2,9.2      c-0.4,1.3-0.9,2.5-1.4,3.8c0.9-2.4-0.2,0.4-0.7,1.3c-1.4,2.8-3,5.3-4.7,7.9c-1.5,2.3,1-0.9-0.9,1.1c-0.9,1-1.7,2-2.6,2.9      c-0.9,0.9-1.8,1.9-2.8,2.7c-0.5,0.4-1,0.9-1.5,1.3c-0.2,0.2-2.3,1.9-1,0.9c1.1-0.8-1.7,1.2-2.2,1.5c-1.3,0.8-2.6,1.6-3.9,2.4      c-1.2,0.6-2.3,1.2-3.5,1.8c-0.2,0.1-2.2,1-0.6,0.3c1.5-0.7-1,0.4-1.3,0.5c-2.5,0.9-5.1,1.7-7.8,2.2c-0.6,0.1-4.2,0.7-2.7,0.5      c1.9-0.3-1,0.1-1.4,0.1c-0.9,0.1-1.9,0.1-2.8,0.2c-2.8,0.1-5.6,0-8.4-0.3c-1.8-0.2,0.3,0.1,0.6,0.1c-0.7-0.1-1.3-0.2-2-0.4      c-1.6-0.3-3.1-0.7-4.6-1.1c-1.5-0.4-3-0.9-4.5-1.4c-0.6-0.2-1.3-0.5-1.9-0.7c0.2,0.1,2.1,1,0.5,0.2c-2.6-1.3-5.1-2.6-7.5-4.1      c-1.1-0.7-2.2-1.5-3.2-2.2c2,1.5-0.3-0.3-1-0.9c-2.3-2-4.3-4.3-6.4-6.5c-1.8-2,0.7,1.2-0.9-1.1c-0.7-1.1-1.5-2.2-2.2-3.3      c-0.7-1.1-1.3-2.3-2-3.4c-0.5-0.9-2.3-5-1.3-2.4c-1-2.5-1.8-5-2.5-7.6c-0.3-1.3-0.6-2.6-0.9-4c0-0.2-0.4-2.4-0.1-0.7      c0.2,1.7-0.1-1.1-0.1-1.4c-0.2-3-0.3-6.1-0.1-9.1c0.1-1,0.5-4.1,0.1-1.5c0.3-1.6,0.6-3.1,0.9-4.7c0.6-2.6,1.4-5.2,2.4-7.7      c0.6-1.6-0.1,0.3-0.2,0.5c0.4-0.8,0.7-1.6,1.1-2.4c0.7-1.4,1.4-2.7,2.2-4c0.7-1.1,1.4-2.2,2.1-3.3c0.4-0.5,0.8-1.1,1.1-1.6      c-0.1,0.2-1.4,1.7-0.3,0.5c2-2.3,4-4.6,6.3-6.6c0.4-0.4,3.1-2.6,2-1.8c-1.1,0.8,1.7-1.2,2.2-1.5c2.4-1.6,4.9-2.9,7.5-4.2      c2.5-1.3-1.3,0.3,1.3-0.6c1.5-0.5,2.9-1,4.5-1.5c1.3-0.4,2.6-0.7,3.9-1c0.9-0.2,4.9-0.8,2.1-0.5c2.8-0.3,5.6-0.4,8.4-0.4      c1.6,0,3.2,0.2,4.9,0.3c1.8,0.2-0.3-0.1-0.6-0.1c0.9,0.2,1.8,0.3,2.7,0.5c3.1,0.6,6.1,1.6,9,2.6c0.2,0.1,2.2,0.9,0.7,0.2      c-1.5-0.7,1,0.5,1.2,0.6c1.6,0.8,3.1,1.6,4.6,2.5c1.3,0.8,2.6,1.7,3.9,2.5c0.2,0.1,1.9,1.4,0.6,0.4c-1.3-1,0.8,0.7,1,0.9      c2.3,2,4.4,4.2,6.5,6.5c0.4,0.5,0.8,1,1.3,1.5c-1.3-1.6-0.3-0.3,0.4,0.6c0.9,1.3,1.7,2.6,2.5,3.9c0.8,1.3,1.5,2.7,2.2,4.1      c0.3,0.6,0.6,1.2,0.8,1.8c-0.6-1.3-0.4-1.2,0,0.1c1.1,3.2,2.1,6.4,2.7,9.7c0.1,0.7,0.2,1.3,0.4,2c-0.3-1.5-0.1-1.3,0,0.1      C427.9,399.3,428,401.1,428,403c0.1,7.8,6.8,15.4,15,15c8.1-0.4,15.1-6.6,15-15c-0.4-32.5-20.6-60.7-50.9-72      c-29-10.8-64.2-1.1-83.7,22.8c-20.3,24.9-24,60.3-7.2,88.2c16.8,28,49.5,41.7,81.3,35.6c35.2-6.8,60.3-39.4,60.7-74.7      c0.1-7.8-7-15.4-15-15C434.8,388.4,428.1,394.6,428,403z"></path></g></g></g><g><line x1="168" y1="214.3" x2="326.9" y2="124.6"></line><g><path d="M175.5,227.2c17.9-10.1,35.8-20.2,53.8-30.4c28.4-16.1,56.9-32.1,85.3-48.2c6.6-3.7,13.2-7.5,19.8-11.2     c7.1-4,9.4-13.6,5.4-20.5c-4.2-7.1-13.4-9.4-20.5-5.4c-17.9,10.1-35.8,20.2-53.8,30.4c-28.4,16.1-56.9,32.1-85.3,48.2     c-6.6,3.7-13.2,7.5-19.8,11.2c-7.1,4-9.4,13.6-5.4,20.5C159.2,228.9,168.5,231.2,175.5,227.2L175.5,227.2z"></path></g></g><g><line x1="168" y1="285.8" x2="326.9" y2="375.5"></line><g><path d="M160.4,298.7c17.9,10.1,35.8,20.3,53.8,30.4c28.4,16.1,56.9,32.1,85.3,48.2c6.6,3.7,13.2,7.5,19.8,11.2     c7.1,4,16.4,1.7,20.5-5.4c4.1-6.9,1.7-16.5-5.4-20.5c-17.9-10.1-35.8-20.3-53.8-30.4c-28.4-16.1-56.9-32.1-85.3-48.2     c-6.6-3.7-13.2-7.5-19.8-11.2c-7.1-4-16.4-1.7-20.5,5.4C151,285.1,153.3,294.7,160.4,298.7L160.4,298.7z"></path></g></g></g></svg>