<svg height='300px' width='300px'  fill="#FFFFFF" xmlns="http://www.w3.org/2000/svg" xmlns:xlink="http://www.w3.org/1999/xlink" version="1.1" x="0px" y="0px" viewBox="0 0 500 500" enable-background="new 0 0 500 500" xml:space="preserve"><g><g><path d="M339.8,379.4c-17-16.1-34-32.3-50.9-48.4c-27.1-25.8-54.2-51.5-81.3-77.3c-6.3-5.9-12.5-11.9-18.8-17.8    c0,9.4,0,18.9,0,28.3c17-16.1,34-32.3,50.9-48.4c27.1-25.8,54.2-51.5,81.3-77.3c6.3-5.9,12.5-11.9,18.8-17.8    c7.6-7.2,7.8-21.1,0-28.3c-8.2-7.5-20.2-7.7-28.3,0c-17,16.1-34,32.3-50.9,48.4c-27.1,25.8-54.2,51.5-81.3,77.3    c-6.3,5.9-12.5,11.9-18.8,17.8c-7.7,7.3-7.7,21,0,28.3c17,16.1,34,32.3,50.9,48.4c27.1,25.8,54.2,51.5,81.3,77.3    c6.3,5.9,12.5,11.9,18.8,17.8c7.6,7.2,20.9,8.1,28.3,0C346.9,399.8,347.9,387.1,339.8,379.4L339.8,379.4z"></path></g></g></svg>