<?xml version="1.0" encoding="UTF-8" standalone="no"?>
<svg
   xmlns:dc="http://purl.org/dc/elements/1.1/"
   xmlns:cc="http://creativecommons.org/ns#"
   xmlns:rdf="http://www.w3.org/1999/02/22-rdf-syntax-ns#"
   xmlns:svg="http://www.w3.org/2000/svg"
   xmlns="http://www.w3.org/2000/svg"
   viewBox="0 0 4251.9399 4251.9897"
   height="4251.9897"
   width="4251.9399"
   xml:space="preserve"
   id="svg2"
   version="1.1"><metadata
     id="metadata8"><rdf:RDF><cc:Work
         rdf:about=""><dc:format>image/svg+xml</dc:format><dc:type
           rdf:resource="http://purl.org/dc/dcmitype/StillImage" /><dc:title></dc:title></cc:Work></rdf:RDF></metadata><defs
     id="defs6"><clipPath
       id="clipPath142"
       clipPathUnits="userSpaceOnUse"><path
         id="path140"
         d="m 1684.05,3774.32 -2.4,54.59 24.82,-50.5 -22.42,-4.09" /></clipPath></defs><g
     transform="rotate(180,2126.0012,2126.0067)"
     id="g18477"><path
       d="M 0.03125,0.0117188 H 4251.9712 V 4252.0017 H 0.03125 Z"
       style="fill:none;fill-opacity:1;fill-rule:nonzero;stroke:none"
       id="path14" /><path
       d="m 659.297,2961.97 c 74.531,0 114.957,0 189.492,0 11.039,0 19.996,8.96 19.996,20 0,11.05 -8.957,20 -19.996,20 -74.535,0 -114.965,0 -189.492,0 -11.051,0 -20,-8.95 -20,-20 0,-11.04 8.949,-20 20,-20"
       style="fill:#4b632f;fill-opacity:1;fill-rule:nonzero;stroke:none"
       id="path16" /><path
       d="m 233.184,3181.97 h 660 c 11.046,0 20,8.96 20,20 0,11.05 -8.954,20 -20,20 h -660 c -11.051,0 -20,-8.95 -20,-20 0,-11.04 8.949,-20 20,-20"
       style="fill:#4b632f;fill-opacity:1;fill-rule:nonzero;stroke:none"
       id="path18" /><path
       d="m 922.637,2961.97 c 76.855,0 121.793,0 198.653,0 11.04,0 20,8.96 20,20 0,11.05 -8.96,20 -20,20 -76.86,0 -121.802,0 -198.653,0 -11.051,0 -20.004,-8.95 -20.004,-20 0,-11.04 8.953,-20 20.004,-20"
       style="fill:#4b632f;fill-opacity:1;fill-rule:nonzero;stroke:none"
       id="path20" /><path
       d="m 461.289,2961.97 c 42.813,0 59.098,0 101.895,0 11.046,0 20,8.96 20,20 0,11.05 -8.954,20 -20,20 -42.797,0 -59.086,0 -101.895,0 -11.051,0 -20,-8.95 -20,-20 0,-11.04 8.949,-20 20,-20"
       style="fill:#4b632f;fill-opacity:1;fill-rule:nonzero;stroke:none"
       id="path22" /><path
       d="m 3375.63,2250.34 h 660 c 11.04,0 20,8.95 20,20 0,11.05 -8.96,20 -20,20 h -660 c -11.05,0 -20,-8.95 -20,-20 0,-11.05 8.95,-20 20,-20"
       style="fill:#4b632f;fill-opacity:1;fill-rule:nonzero;stroke:none"
       id="path24" /><path
       d="m 3804.49,2445.99 c 34.61,0 45.84,0 80.43,-0.01 11.05,0 20,8.96 20,20 0,11.05 -8.95,20 -20,20 -34.59,0.01 -45.82,0.01 -80.43,0 -11.05,0 -20,-8.95 -20,-20 0,-11.04 8.95,-20 20,-20"
       style="fill:#4b632f;fill-opacity:1;fill-rule:nonzero;stroke:none"
       id="path26" /><path
       d="m 3684.28,2445.99 c 18.45,0 36.89,0 55.35,0 11.04,0 19.99,8.95 19.99,19.99 0,11.05 -8.95,20 -19.99,20 -18.46,0.01 -36.9,0.01 -55.35,0 -11.05,0 -20,-8.95 -20,-20 0,-11.04 8.95,-20 20,-20"
       style="fill:#4b632f;fill-opacity:1;fill-rule:nonzero;stroke:none"
       id="path28" /><path
       d="m 3527.83,2445.99 c 43.81,0 27.3,0 71.12,0 11.04,0 19.99,8.95 19.99,19.99 0,11.05 -8.95,20 -19.99,20 -43.81,0.01 -27.31,0.01 -71.12,0 -11.05,0 -20,-8.95 -20,-20 0,-11.04 8.95,-20 20,-20"
       style="fill:#4b632f;fill-opacity:1;fill-rule:nonzero;stroke:none"
       id="path30" /><path
       d="m 3375.63,2447.12 c 43.73,0 39.6,0 83.33,0 11.05,0 20,8.95 20,20 0,11.04 -8.95,20 -20,20 -43.73,0 -39.61,0 -83.33,0 -11.05,0 -20.01,-8.96 -20.01,-20 0,-11.05 8.96,-20.01 20.01,-20.01"
       style="fill:#4b632f;fill-opacity:1;fill-rule:nonzero;stroke:none"
       id="path32" /><path
       d="m 3226.05,2447.12 c 25.32,0 50.62,0 75.96,0 11.04,0 20,8.95 20,20 0,11.04 -8.96,19.99 -20,19.99 -25.34,0.01 -50.65,0.01 -75.96,0.01 -11.05,0 -20,-8.96 -20,-20 0,-11.05 8.95,-20 20,-20"
       style="fill:#4b632f;fill-opacity:1;fill-rule:nonzero;stroke:none"
       id="path34" /><path
       d="m 325.098,968.648 h 479.726 c 11.043,0 20,8.961 20,20 0,11.051 -8.957,20.002 -20,20.002 H 325.098 c -11.051,0 -20,-8.951 -20,-20.002 0,-11.039 8.949,-20 20,-20"
       style="fill:#4b632f;fill-opacity:1;fill-rule:nonzero;stroke:none"
       id="path36" /><path
       d="m 636.816,1164.3 c 25.157,0 33.317,0 58.457,0 11.04,0 19.997,8.95 19.997,19.99 0,11.05 -8.957,20 -19.997,20 -25.136,0.01 -33.304,0.01 -58.457,0 -11.05,0 -20,-8.95 -20,-20 0,-11.04 8.95,-20 20,-20"
       style="fill:#4b632f;fill-opacity:1;fill-rule:nonzero;stroke:none"
       id="path38" /><path
       d="m 549.434,1164.3 c 13.418,0 26.812,0 40.234,0 11.039,0 19.996,8.95 19.996,19.99 0,11.05 -8.957,20 -19.996,20 -13.418,0.01 -26.82,0.01 -40.234,0 -11.051,0 -20,-8.95 -20,-20 0,-11.04 8.949,-20 20,-20"
       style="fill:#4b632f;fill-opacity:1;fill-rule:nonzero;stroke:none"
       id="path40" /><path
       d="m 435.723,1164.29 c 31.855,0.01 19.84,0.01 51.699,0 11.047,0 20,8.96 20,20 0,11.05 -8.953,20 -20,20 -31.856,0.01 -19.848,0.01 -51.699,0.01 -11.051,0 -20.004,-8.96 -20.004,-20.01 0,-11.04 8.953,-20 20.004,-20"
       style="fill:#4b632f;fill-opacity:1;fill-rule:nonzero;stroke:none"
       id="path42" /><path
       d="m 325.098,1165.43 c 31.777,0 28.785,0 60.566,0 11.047,0 20,8.95 20,20 0,11.05 -8.953,20 -20,20 -31.781,0 -28.793,0 -60.566,0 -11.051,0 -20.004,-8.95 -20.004,-20 0,-11.05 8.953,-20 20.004,-20"
       style="fill:#4b632f;fill-opacity:1;fill-rule:nonzero;stroke:none"
       id="path44" /><path
       d="m 216.367,1165.43 c 18.399,0 36.793,0 55.215,0 11.039,0 19.996,8.96 19.996,20 0,11.04 -8.957,20 -19.996,20 -18.422,0 -36.816,0 -55.215,0 -11.051,0 -20,-8.95 -20,-20 0,-11.05 8.949,-20 20,-20"
       style="fill:#4b632f;fill-opacity:1;fill-rule:nonzero;stroke:none"
       id="path46" /><path
       d="m 3850.49,756.109 h -660 c -11.05,0 -20,-8.949 -20,-20 0,-11.039 8.95,-20 20,-20 h 660 c 11.04,0 20,8.961 20,20 0,11.051 -8.96,20 -20,20"
       style="fill:#4b632f;fill-opacity:1;fill-rule:nonzero;stroke:none"
       id="path48" /><path
       d="m 3421.62,677.391 c -34.59,0 -45.84,0 -80.43,0 -11.05,0 -20,-8.95 -20,-20 0,-11.039 8.95,-20 20,-20 34.59,0 45.84,0 80.43,0 11.05,0 20,8.961 20,20 0,11.05 -8.95,20 -20,20 v 0"
       style="fill:#4b632f;fill-opacity:1;fill-rule:nonzero;stroke:none"
       id="path50" /><path
       d="m 3541.84,677.391 c -18.45,0 -36.9,0 -55.36,0 -11.05,0 -20,-8.95 -20,-20 0,-11.039 8.95,-20 20,-20 18.46,0 36.91,0 55.36,0 11.04,0 19.99,8.961 19.99,20 0,11.05 -8.95,20 -19.99,20 v 0"
       style="fill:#4b632f;fill-opacity:1;fill-rule:nonzero;stroke:none"
       id="path52" /><path
       d="m 3698.3,677.391 c -43.83,0 -27.3,0 -71.13,0 -11.05,0 -20,-8.95 -20,-20 0,-11.039 8.95,-20 20,-20 43.83,0 27.3,0 71.13,0 11.04,0 20,8.961 20,20 0,11.05 -8.96,20 -20,20 v 0"
       style="fill:#4b632f;fill-opacity:1;fill-rule:nonzero;stroke:none"
       id="path54" /><path
       d="m 3850.49,676.93 c -43.71,0 -39.62,0 -83.32,0 -11.05,0 -20,-8.95 -20,-20 0,-11.039 8.95,-20 20,-20 43.71,0 39.6,0 83.32,0 11.04,0 19.99,8.961 19.99,20 0,11.05 -8.95,20 -19.99,20 v 0"
       style="fill:#4b632f;fill-opacity:1;fill-rule:nonzero;stroke:none"
       id="path56" /><path
       d="m 4000.06,676.93 c -25.32,0 -50.63,0 -75.94,0 -11.05,0 -20,-8.95 -20,-20 0,-11.039 8.95,-20 20,-20 25.31,0 50.62,0 75.94,0 11.04,0 19.99,8.961 19.99,20 0,11.05 -8.95,20 -19.99,20 v 0"
       style="fill:#4b632f;fill-opacity:1;fill-rule:nonzero;stroke:none"
       id="path58" /><path
       d="m 615.781,2209.63 h -20.004 c -0.011,-9.06 -3.613,-17.08 -9.547,-23.04 -5.96,-5.93 -13.988,-9.54 -23.046,-9.55 -9.063,0.01 -17.079,3.61 -23.039,9.54 -5.926,5.96 -9.532,13.98 -9.54,23.05 0.008,9.06 3.614,17.08 9.54,23.04 5.96,5.93 13.976,9.54 23.039,9.54 9.058,0 17.086,-3.61 23.046,-9.54 5.934,-5.96 9.536,-13.98 9.547,-23.04 h 20.004 20 c -0.019,40.1 -32.504,72.57 -72.597,72.59 -40.102,-0.02 -72.571,-32.5 -72.582,-72.59 0.011,-40.09 32.48,-72.58 72.582,-72.59 40.093,0.01 72.578,32.49 72.597,72.59 h -20"
       style="fill:#4b632f;fill-opacity:1;fill-rule:nonzero;stroke:none"
       id="path60" /><path
       d="m 3949.14,1455.9 h -20 c -0.01,-9.06 -3.62,-17.08 -9.55,-23.04 -5.96,-5.93 -13.99,-9.54 -23.05,-9.55 -9.06,0.01 -17.08,3.61 -23.03,9.54 -5.93,5.96 -9.54,13.98 -9.55,23.05 0.01,9.06 3.62,17.08 9.55,23.04 5.95,5.93 13.97,9.53 23.03,9.54 9.06,-0.01 17.09,-3.61 23.05,-9.54 5.93,-5.96 9.54,-13.98 9.55,-23.04 h 20 20 c -0.02,40.1 -32.5,72.57 -72.6,72.59 -40.1,-0.02 -72.57,-32.5 -72.58,-72.59 0.01,-40.09 32.48,-72.58 72.58,-72.59 40.1,0.01 72.58,32.49 72.6,72.59 h -20"
       style="fill:#4b632f;fill-opacity:1;fill-rule:nonzero;stroke:none"
       id="path62" /><path
       d="m 2830.8,611.031 h -20 c -0.01,-9.062 -3.62,-17.082 -9.55,-23.043 -5.95,-5.929 -13.97,-9.527 -23.03,-9.539 -9.06,0.012 -17.09,3.61 -23.05,9.539 -5.93,5.973 -9.53,13.992 -9.55,23.043 0.02,9.059 3.62,17.078 9.55,23.051 5.96,5.93 13.99,9.527 23.05,9.539 9.06,-0.012 17.08,-3.609 23.03,-9.539 5.93,-5.961 9.54,-13.98 9.55,-23.051 h 20 20 c -0.01,40.098 -32.48,72.578 -72.58,72.59 -40.1,-0.012 -72.58,-32.48 -72.6,-72.59 0.02,-40.101 32.5,-72.57 72.6,-72.582 40.1,0.012 72.57,32.492 72.58,72.582 h -20"
       style="fill:#4b632f;fill-opacity:1;fill-rule:nonzero;stroke:none"
       id="path64" /><path
       d="m 2673.89,3410.78 h -20.01 c -0.01,-9.06 -3.61,-17.08 -9.54,-23.04 -5.97,-5.93 -13.99,-9.54 -23.05,-9.54 -9.06,0 -17.08,3.61 -23.04,9.53 -5.93,5.97 -9.53,13.99 -9.54,23.05 0.01,9.06 3.61,17.09 9.54,23.05 5.96,5.92 13.98,9.53 23.04,9.54 9.06,-0.01 17.08,-3.62 23.05,-9.55 5.93,-5.96 9.53,-13.98 9.54,-23.04 h 20.01 20 c -0.02,40.1 -32.51,72.58 -72.6,72.59 -40.1,-0.01 -72.57,-32.5 -72.58,-72.59 0.01,-40.09 32.48,-72.57 72.58,-72.59 40.09,0.02 72.58,32.49 72.6,72.59 h -20"
       style="fill:#4b632f;fill-opacity:1;fill-rule:nonzero;stroke:none"
       id="path66" /><path
       d="m 711.875,540.18 h -20.004 c -0.012,-9.059 -3.613,-17.078 -9.543,-23.039 -5.957,-5.93 -13.973,-9.532 -23.031,-9.539 -9.063,0.007 -17.09,3.609 -23.051,9.539 -5.933,5.968 -9.535,13.988 -9.547,23.039 0.012,9.058 3.614,17.082 9.547,23.05 5.961,5.93 13.988,9.532 23.051,9.54 9.058,-0.008 17.074,-3.61 23.031,-9.54 5.93,-5.96 9.531,-13.98 9.543,-23.05 h 20.004 20 c -0.016,40.101 -32.48,72.582 -72.578,72.59 -40.098,-0.008 -72.582,-32.481 -72.602,-72.59 0.02,-40.098 32.504,-72.571 72.602,-72.578 40.098,0.007 72.562,32.488 72.578,72.578 h -20"
       style="fill:#4b632f;fill-opacity:1;fill-rule:nonzero;stroke:none"
       id="path68" /><path
       d="m 601.836,1425.24 h -20.004 c -0.016,-10.28 -8.355,-18.62 -18.648,-18.64 -10.293,0.02 -18.618,8.35 -18.633,18.64 0.015,10.31 8.336,18.63 18.633,18.65 10.296,-0.02 18.632,-8.35 18.652,-18.65 h 20 19.996 c -0.012,32.41 -26.258,58.63 -58.648,58.64 -32.403,0 -58.629,-26.25 -58.633,-58.64 0.004,-32.38 26.226,-58.63 58.633,-58.64 32.398,0.01 58.636,26.25 58.652,58.64 h -20"
       style="fill:#4b632f;fill-opacity:1;fill-rule:nonzero;stroke:none"
       id="path70" /><path
       d="m 1738.89,3725.76 h -20.01 c -0.01,-10.28 -8.35,-18.62 -18.65,-18.64 -10.29,0.02 -18.61,8.35 -18.63,18.64 0.02,10.31 8.34,18.63 18.63,18.65 10.3,-0.02 18.64,-8.36 18.66,-18.65 h 20 19.99 c -0.01,32.4 -26.25,58.63 -58.65,58.64 -32.4,-0.01 -58.62,-26.25 -58.63,-58.64 0.01,-32.38 26.23,-58.63 58.63,-58.64 32.4,0.01 58.64,26.24 58.66,58.64 h -20"
       style="fill:#ffffff;fill-opacity:1;fill-rule:nonzero;stroke:none"
       id="path72" /><path
       d="m 1437.44,572.391 h -20 c -0.02,-10.282 -8.36,-18.621 -18.65,-18.641 -5.2,0.012 -9.74,2.051 -13.17,5.461 -3.41,3.437 -5.46,7.98 -5.46,13.18 0.01,10.3 8.36,18.629 18.63,18.648 10.3,-0.019 18.63,-8.359 18.65,-18.648 h 20 20 c -0.01,32.41 -26.26,58.629 -58.65,58.64 -32.39,-0.011 -58.62,-26.242 -58.63,-58.64 0.01,-32.391 26.24,-58.621 58.63,-58.641 32.4,0.012 58.64,26.25 58.65,58.641 h -20"
       style="fill:#4b632f;fill-opacity:1;fill-rule:nonzero;stroke:none"
       id="path74" /><path
       d="m 3782.91,3372.14 h -20 c -0.02,-10.28 -8.36,-18.62 -18.65,-18.64 -5.2,0 -9.74,2.05 -13.18,5.46 -3.4,3.43 -5.45,7.97 -5.45,13.18 0.01,10.29 8.35,18.62 18.63,18.64 10.3,-0.02 18.63,-8.35 18.65,-18.64 h 20 20 c -0.01,32.4 -26.26,58.63 -58.65,58.64 -32.39,-0.01 -58.63,-26.24 -58.63,-58.64 0.01,-32.39 26.24,-58.62 58.63,-58.64 32.4,0.01 58.64,26.24 58.65,58.64 h -20"
       style="fill:#4b632f;fill-opacity:1;fill-rule:nonzero;stroke:none"
       id="path76" /><path
       d="m 3388.16,1386.6 h -20 c -0.02,-10.29 -8.35,-18.62 -18.65,-18.64 -10.3,0.02 -18.62,8.33 -18.64,18.64 0.02,10.3 8.35,18.63 18.64,18.64 10.29,-0.01 18.63,-8.36 18.65,-18.64 h 20 20 c -0.01,32.4 -26.25,58.63 -58.65,58.64 -32.41,-0.01 -58.63,-26.26 -58.64,-58.64 0.01,-32.39 26.24,-58.63 58.64,-58.64 32.39,0.01 58.64,26.24 58.65,58.64 h -20"
       style="fill:#4b632f;fill-opacity:1;fill-rule:nonzero;stroke:none"
       id="path78" /><path
       d="m 3904.39,653.648 h -34.18 c 0.18,1.071 0.27,2.161 0.27,3.282 0,11.05 -8.95,20 -19.99,20 v 0 c -21.86,0 -31.76,0 -41.66,0 -9.91,0 -19.81,0 -41.66,0 -11.05,0 -20,-8.95 -20,-20 0,-1.121 0.09,-2.211 0.27,-3.282 h -29.49 c 0.23,1.211 0.35,2.461 0.35,3.743 0,11.05 -8.96,20 -20,20 v 0 c -21.92,0 -28.74,0 -35.57,0 -6.82,0 -13.65,0 -35.56,0 -11.05,0 -20,-8.95 -20,-20 0,-1.282 0.12,-2.532 0.35,-3.743 h -46.04 c 0.23,1.211 0.35,2.461 0.35,3.743 0,11.05 -8.95,20 -19.99,20 v 0 c -9.23,0 -18.45,0 -27.68,0 -9.22,0 -18.45,0 -27.68,0 -11.05,0 -20,-8.95 -20,-20 0,-1.282 0.12,-2.532 0.35,-3.743 h -25.56 c 0.23,1.211 0.35,2.461 0.35,3.743 0,11.05 -8.95,20 -20,20 v 0 c -34.59,0 -45.84,0 -80.43,0 -11.05,0 -20,-8.95 -20,-20 0,-1.282 0.12,-2.532 0.35,-3.743 h -484.56 c -13.19,18.161 -34.59,29.961 -58.76,29.973 -24.17,-0.012 -45.58,-11.812 -58.77,-29.973 H 307.539 l 304.375,315 h 192.91 c 11.043,0 20,8.961 20,20 0,11.051 -8.957,20.002 -20,20.002 H 650.566 L 820.098,1184.1 3388.46,1184.53 3852.65,756 c -0.71,0.07 -1.43,0.109 -2.16,0.109 h -660 c -11.05,0 -20,-8.949 -20,-20 0,-11.039 8.95,-20 20,-20 h 660 c 11.04,0 20,8.961 20,20 0,1.282 -0.12,2.532 -0.35,3.743 l 68.16,-62.922 c -4.73,0 -9.45,0 -14.18,0 -11.05,0 -20,-8.95 -20,-20 0,-1.121 0.09,-2.211 0.27,-3.282"
       style="fill:#5c9a7e;fill-opacity:1;fill-rule:nonzero;stroke:none"
       id="path80" /><path
       d="m 804.824,968.648 h -192.91 l 38.652,40.002 h 154.258 c 11.043,0 20,-8.951 20,-20.002 0,-11.039 -8.957,-20 -20,-20"
       style="fill:#4b632f;fill-opacity:1;fill-rule:nonzero;stroke:none"
       id="path82" /><path
       d="m 3850.49,716.109 h -660 c -11.05,0 -20,8.961 -20,20 0,11.051 8.95,20 20,20 h 660 c 0.73,0 1.45,-0.039 2.16,-0.109 l 17.49,-16.148 c 0.23,-1.211 0.35,-2.461 0.35,-3.743 0,-11.039 -8.96,-20 -20,-20"
       style="fill:#4b632f;fill-opacity:1;fill-rule:nonzero;stroke:none"
       id="path84" /><path
       d="m 3441.27,653.648 h -119.73 c -0.23,1.211 -0.35,2.461 -0.35,3.743 0,11.05 8.95,20 20,20 34.59,0 45.84,0 80.43,0 v 0 c 11.05,0 20,-8.95 20,-20 0,-1.282 -0.12,-2.532 -0.35,-3.743"
       style="fill:#4b632f;fill-opacity:1;fill-rule:nonzero;stroke:none"
       id="path86" /><path
       d="m 3561.48,653.648 h -94.65 c -0.23,1.211 -0.35,2.461 -0.35,3.743 0,11.05 8.95,20 20,20 9.23,0 18.46,0 27.68,0 9.23,0 18.45,0 27.68,0 v 0 c 11.04,0 19.99,-8.95 19.99,-20 0,-1.282 -0.12,-2.532 -0.35,-3.743"
       style="fill:#4b632f;fill-opacity:1;fill-rule:nonzero;stroke:none"
       id="path88" /><path
       d="m 3717.95,653.648 h -110.43 c -0.23,1.211 -0.35,2.461 -0.35,3.743 0,11.05 8.95,20 20,20 21.91,0 28.74,0 35.56,0 6.83,0 13.65,0 35.57,0 v 0 c 11.04,0 20,-8.95 20,-20 0,-1.282 -0.12,-2.532 -0.35,-3.743"
       style="fill:#4b632f;fill-opacity:1;fill-rule:nonzero;stroke:none"
       id="path90" /><path
       d="m 3870.21,653.648 h -122.77 c -0.18,1.071 -0.27,2.161 -0.27,3.282 0,11.05 8.95,20 20,20 21.85,0 31.75,0 41.66,0 9.9,0 19.8,0 41.66,0 v 0 c 11.04,0 19.99,-8.95 19.99,-20 0,-1.121 -0.09,-2.211 -0.27,-3.282"
       style="fill:#4b632f;fill-opacity:1;fill-rule:nonzero;stroke:none"
       id="path92" /><path
       d="m 3963.52,653.648 h -59.13 c -0.18,1.071 -0.27,2.161 -0.27,3.282 0,11.05 8.95,20 20,20 4.73,0 9.45,0 14.18,0 l 25.22,-23.282"
       style="fill:#4b632f;fill-opacity:1;fill-rule:nonzero;stroke:none"
       id="path94" /><path
       d="m 2836.98,653.648 h -117.53 c 13.19,18.161 34.6,29.961 58.77,29.973 24.17,-0.012 45.57,-11.812 58.76,-29.973"
       style="fill:#4b632f;fill-opacity:1;fill-rule:nonzero;stroke:none"
       id="path96" /><path
       d="M 915.508,1323.76 442.344,793.309 H 3817.34 l -530.88,530.871 -2370.952,-0.42"
       style="fill:#212c36;fill-opacity:1;fill-rule:nonzero;stroke:none"
       id="path98" /><path
       d="M 1007.44,1267.94 791.328,1010.14 H 3496.82 l -257.97,258 -2231.41,-0.2"
       style="fill:#13181d;fill-opacity:1;fill-rule:nonzero;stroke:none"
       id="path100" /><path
       d="M 1818.42,974.309 1756.5,859.898 h 775.16 l -73.93,114.5 -639.31,-0.089"
       style="fill:#13181d;fill-opacity:1;fill-rule:nonzero;stroke:none"
       id="path102" /><path
       d="m 931.348,1312.32 c -19.883,0 -35.996,16.1 -35.996,35.97 v 1476.7 c 0,19.87 16.113,35.99 35.996,35.99 H 3252.77 c 19.89,0 36,-16.12 36,-35.99 v -1476.7 c 0,-19.87 -16.11,-35.97 -36,-35.97 H 931.348"
       style="fill:#151a20;fill-opacity:1;fill-rule:nonzero;stroke:none"
       id="path104" /><path
       d="m 950.801,1324.57 c -19.512,0 -35.293,15.78 -35.293,35.27 v 1453.6 c 0,19.51 15.781,35.32 35.293,35.32 H 3239.94 c 19.49,0 35.29,-15.81 35.29,-35.32 v -1453.6 c 0,-19.49 -15.8,-35.27 -35.29,-35.27 H 950.801"
       style="fill:#212c36;fill-opacity:1;fill-rule:nonzero;stroke:none"
       id="path106" /><path
       d="m 985.059,1410.83 h 2220.62 V 2762.49 H 985.059 Z"
       style="fill:#9edfe2;fill-opacity:1;fill-rule:nonzero;stroke:none"
       id="path108" /><path
       d="M 442.344,793.309 H 3817.34 V 715.398 H 442.344 v 77.911"
       style="fill:#13181d;fill-opacity:1;fill-rule:nonzero;stroke:none"
       id="path110" /><path
       d="m 1246.73,3546.66 c -36.25,35.63 -36.76,93.89 -1.12,130.14 35.59,36.25 93.84,36.74 130.1,1.11 l 182.06,-135.94 c 36.26,-35.61 36.77,-93.86 1.16,-130.12 l -42.75,-44 c -35.62,-36.25 -43.3,-62.06 -79.53,-26.44 l -189.92,205.25"
       style="fill:#f9b095;fill-opacity:1;fill-rule:nonzero;stroke:none"
       id="path112" /><path
       d="m 1510.69,3138.16 -15.59,94.18 -233.86,-101.51 182.04,-286.82 -214.87,-49.32 214.87,-279 -164.34,-95.42 192.99,-273.76 212.44,386.29 v 514.49 l -78.05,134.19 -95.63,-43.32"
       style="fill:#e19f86;fill-opacity:1;fill-rule:nonzero;stroke:none"
       id="path114" /><path
       d="m 2967.74,2418.12 -345.65,102.19"
       style="fill:#f9b095;fill-opacity:1;fill-rule:nonzero;stroke:none"
       id="path116" /><path
       d="m 2838.06,1893.63 c -9.83,-21.24 -49.24,-482.8 -49.24,-482.8 h -167.66 -654.49 c 23.03,182 -157.83,318.71 -157.83,318.71 -296.8,197.86 -304.16,521.34 -304.16,521.34 l 767.75,881.33 341.96,-611.9 361.06,-122.68 c 0,0 -55.68,-327.89 -137.39,-504"
       style="fill:#f9b095;fill-opacity:1;fill-rule:nonzero;stroke:none"
       id="path118" /><path
       d="m 2342.37,3887.02 67.78,-1540.38 -674.71,-29.69 -67.79,1540.39 674.72,29.68"
       style="fill:#6e7f37;fill-opacity:1;fill-rule:nonzero;stroke:none"
       id="path120" /><path
       d="m 2339.19,3041.27 c -42.57,-100.3 -159.04,-175.41 -299.2,-181.58 -123.93,-5.45 -234.16,44.43 -293.46,122.52 l 20.84,-473.39 c 74.51,3.27 137.6,-54.49 140.86,-129.01 l 324.24,14.27 c -3.28,74.52 54.46,137.58 128.98,140.87 l -22.26,506.32"
       style="fill:#4b632f;fill-opacity:1;fill-rule:nonzero;stroke:none"
       id="path122" /><path
       d="m 1845.34,3809.9 c 3.27,-74.52 -54.47,-137.59 -129,-140.87 l 19.2,-436.63 c 52.18,83.03 157.61,142.37 281.55,147.83 140.18,6.16 262.78,-58.43 313.98,-154.61 l -20.66,469.53 h -0.01 c -74.5,-3.26 -137.58,54.48 -140.84,129 l -0.02,0.01 -324.2,-14.26"
       style="fill:#4b632f;fill-opacity:1;fill-rule:nonzero;stroke:none"
       id="path124" /><path
       d="m 2309.48,2943.55 c -37.53,-92.59 -140.58,-161.76 -264.71,-167.23 -109.76,-4.83 -207.52,41.43 -260.16,113.67 l 14.77,-335.49 c 66,2.9 121.98,-50.55 124.98,-119.4 l 287.17,12.63 c -3,68.85 48.04,127 114.06,129.92 v -0.01 l -16.11,365.91"
       style="fill:#6e7f37;fill-opacity:1;fill-rule:nonzero;stroke:none"
       id="path126" /><path
       d="m 1866.27,3756.25 c 3.01,-68.85 -48.04,-127.01 -114.02,-129.91 l 13.81,-314.25 c 46.1,76.59 139.35,131.23 249.14,136.07 124.16,5.46 232.86,-54.42 278.39,-143.33 l -15.17,344.65 h -0.01 c -65.98,-2.9 -121.96,50.56 -124.99,119.4 l -287.15,-12.63"
       style="fill:#6e7f37;fill-opacity:1;fill-rule:nonzero;stroke:none"
       id="path128" /><path
       d="m 2062.31,2714.69 c 52.75,2.33 97.39,-38.54 99.69,-91.27 2.34,-52.75 -38.54,-97.35 -91.28,-99.68 -52.72,-2.33 -97.35,38.54 -99.7,91.26 -2.3,52.74 38.58,97.38 91.29,99.69"
       style="fill:#4b632f;fill-opacity:1;fill-rule:nonzero;stroke:none"
       id="path130" /><path
       d="m 2018.72,3706.03 c 52.73,2.33 97.34,-38.56 99.67,-91.28 2.33,-52.72 -38.54,-97.35 -91.3,-99.68 -52.71,-2.32 -97.32,38.55 -99.66,91.29 -2.33,52.72 38.56,97.37 91.29,99.67"
       style="fill:#4b632f;fill-opacity:1;fill-rule:nonzero;stroke:none"
       id="path132" /><path
       d="m 2271.49,3140.17 c -1.6,10.47 -3.77,18.91 -6.55,25.29 -2.74,6.39 -6.59,12.4 -11.59,18.01 -8.52,9.52 -19.83,16.87 -33.93,22.08 -14.13,5.21 -29.04,7.47 -44.81,6.78 -45.19,-1.98 -83.01,-29.12 -113.41,-81.41 l 210.29,9.25 m -457.06,-35.33 c 1.6,-15.19 4.94,-27.73 10.09,-37.61 6.15,-11.39 15.67,-20.4 28.57,-27.02 12.85,-6.63 27.09,-9.59 42.56,-8.89 18.42,0.8 34.94,6.79 49.5,17.98 8.06,6.21 14.86,13.06 20.37,20.61 5.53,7.53 13.27,20.63 23.25,39.24 l 1.86,3.43 -176.2,-7.74 m -7.41,-0.32 -51.31,-2.26 -0.68,15.18 51.33,2.27 c 0.33,23.22 4.47,44.15 12.46,62.78 6.74,15.4 16.07,27.64 27.96,36.75 11.9,9.08 25.13,13.94 39.77,14.59 11.47,0.49 21.29,-2.41 29.48,-8.69 8.16,-6.29 12.49,-14.26 12.87,-23.95 0.35,-7.43 -1.97,-13.84 -6.92,-19.25 -4.96,-5.4 -11.27,-8.27 -18.89,-8.6 -4.96,-0.23 -9.86,0.57 -14.67,2.38 l -13.06,5.53 c -4.82,1.81 -10.53,2.58 -17.03,2.28 -9.43,-0.4 -17.61,-3.45 -24.43,-9.18 -6.88,-5.71 -11.88,-13.59 -15.06,-23.67 -2.55,-8.46 -4.12,-18.67 -4.76,-30.62 l 184.68,8.11 1.86,3.46 c 21.65,41.31 41.89,70.71 60.72,88.23 12.59,11.61 26.76,20.84 42.59,27.75 15.82,6.89 31.79,10.7 48,11.43 22.52,0.98 43.12,-3.53 61.83,-13.53 18.68,-10 33.44,-24.34 44.17,-43.03 10.02,-17.83 17.01,-38.49 21,-61.99 l 55.02,2.42 0.66,-15.18 -54,-2.39 c 0.9,-21.15 -2.52,-42.73 -10.38,-64.7 -7.98,-22.67 -19.62,-40.5 -34.83,-53.45 -15.21,-12.97 -32.61,-19.88 -52.21,-20.75 -14.82,-0.64 -27.54,2.75 -38.14,10.16 -10.57,7.44 -16.1,16.78 -16.63,28.03 -0.31,7.43 1.84,13.66 6.47,18.73 4.59,5.04 10.61,7.74 18,8.05 7.67,0.34 17.16,-3.39 28.51,-11.27 6.48,-4.2 11.79,-7.08 15.91,-8.59 4.14,-1.5 8.65,-2.14 13.58,-1.93 12.13,0.52 23.23,5.02 33.32,13.46 10.1,8.45 17.65,19.56 22.66,33.3 4.8,13.28 6.85,28.59 6.08,45.93 l -0.11,2.69 -220.44,-9.7 -10.31,-19.74 c -9.74,-18.67 -17.9,-32.95 -24.44,-42.81 -6.58,-9.88 -13.88,-18.85 -21.84,-26.83 -21.39,-21.03 -46.42,-32.15 -74.98,-33.42 -17.99,-0.79 -35,2.75 -51,10.6 -16.04,7.87 -29.11,19.14 -39.2,33.81 -13.01,19.04 -20.88,41.57 -23.61,67.61"
       style="fill:#4b632f;fill-opacity:1;fill-rule:nonzero;stroke:none"
       id="path134" /><g
       id="g136"><g
         id="g138"
         clip-path="url(#clipPath142)"><path
           d="m 1681.65,3774.32 h 24.8203 v 54.5898 H 1681.65 Z"
           style="fill:#7c8d45;fill-opacity:1;fill-rule:nonzero;stroke:none"
           id="path144" /></g></g><path
       d="m 2388.09,2335.44 -0.81,4.42 14.46,6.41 5.81,0.25 1.33,-7.28 -20.79,-3.8"
       style="fill:#c4937a;fill-opacity:1;fill-rule:nonzero;stroke:none"
       id="path146" /><path
       d="m 2401.74,2346.27 5.42,2.4 0.39,-2.15 -5.81,-0.25 m -126.25,606.23 -15.53,85.12 c 3.91,7.02 7.34,14.69 10.27,23.02 1.69,4.73 3.18,9.43 4.46,14.12 l 18.95,-103.91 c -5.72,-6.33 -11.77,-12.45 -18.15,-18.35 m -18.96,103.93 -12.29,67.31 21.34,0.94 5.72,-31.39 c -1.03,-5.96 -2.51,-11.6 -4.43,-16.91 -2.71,-7.42 -6.16,-14.07 -10.34,-19.95 m -15.05,82.42 -11.32,62.04 c 9.23,-4.65 16.96,-10.46 23.19,-17.42 0.66,-0.74 1.29,-1.48 1.91,-2.23 l 7.56,-41.45 -21.34,-0.94 m 7.45,77.09 c -7.33,9.44 -15.96,17.45 -25.9,24.03 l -18.78,102.92 c 8.21,-4.01 16.17,-8.32 23.87,-12.89 l 20.81,-114.06 m -531.73,540.64 -10.73,21.83 102.05,18.62 -91.32,-40.45 m 126.86,27.72 -7.88,17.78 9.29,1.69 c 0,-6.6 -0.48,-13.1 -1.41,-19.47 m 45.7,27.56 242.38,44.21 6.07,-33.29 -21.35,-0.94 -1.1,6 -43.67,-7.97 -182.33,-8.01"
       style="fill:#566b30;fill-opacity:1;fill-rule:nonzero;stroke:none"
       id="path148" /><path
       d="m 2356.14,2628.3 -36.4,82.17 -6.81,154.64 43.21,-236.81 m -70.9,270.77 -9.75,53.43 c 6.38,5.9 12.43,12.02 18.15,18.35 l 8.08,-44.3 c -4.81,-9.46 -10.32,-18.64 -16.48,-27.48"
       style="fill:#3d5629;fill-opacity:1;fill-rule:nonzero;stroke:none"
       id="path150" /><path
       d="m 2228.12,3330 c -7.7,4.57 -15.66,8.88 -23.87,12.89 l -11.73,64.27 c 8.45,-4.8 16.58,-9.98 24.35,-15.49 l 11.25,-61.67 m -101.39,437.7 -9.87,54.14 21.35,0.94 9.88,-54.14 -21.36,-0.94 m -280.2,11.02 -2.47,5.58 c 0.93,6.37 1.41,12.87 1.41,19.47 l 44.29,8.09 182.33,8.01 -225.56,-41.15"
       style="fill:#3d5629;fill-opacity:1;fill-rule:nonzero;stroke:none"
       id="path152" /><path
       d="m 2319.74,2710.47 -0.15,0.33 -34.35,188.27 c 6.16,8.84 11.67,18.02 16.48,27.48 l 11.21,-61.44 6.81,-154.64"
       style="fill:#566b30;fill-opacity:1;fill-rule:nonzero;stroke:none"
       id="path154" /><path
       d="m 2216.87,3391.67 c -7.77,5.51 -15.9,10.69 -24.35,15.49 l -65.79,360.54 21.36,0.94 68.78,-376.97"
       style="fill:#566b30;fill-opacity:1;fill-rule:nonzero;stroke:none"
       id="path156" /><path
       d="m 2259.96,3037.62 -3.43,18.81 c 4.18,5.88 7.63,12.53 10.34,19.95 1.92,5.31 3.4,10.95 4.43,16.91 l 3.39,-18.53 c -1.28,-4.69 -2.77,-9.39 -4.46,-14.12 -2.93,-8.33 -6.36,-16 -10.27,-23.02 m -15.72,86.12 -2.76,15.11 21.34,0.94 2.76,-15.11 -21.34,-0.94 m 11.02,57.5 c -0.62,0.75 -1.25,1.49 -1.91,2.23 -6.23,6.96 -13.96,12.77 -23.19,17.42 l -7.13,39.08 c 9.94,-6.58 18.57,-14.59 25.9,-24.03 l 6.33,-34.7"
       style="fill:#3d5629;fill-opacity:1;fill-rule:nonzero;stroke:none"
       id="path158" /><path
       d="m 1472.2,3710.42 -4.46,24.44 194.37,35.46 c -8.66,-7.41 -15.13,-17.31 -18.31,-28.59 l -171.6,-31.31"
       style="fill:#62b08e;fill-opacity:1;fill-rule:nonzero;stroke:none"
       id="path160" /><path
       d="m 1643.8,3741.73 c 3.18,11.28 9.65,21.18 18.31,28.59 l 9.29,1.7 1.1,-25.06 -28.7,-5.23"
       style="fill:#c8d4cf;fill-opacity:1;fill-rule:nonzero;stroke:none"
       id="path162" /><path
       d="m 1672.5,3746.96 -1.1,25.06 12.65,2.3 1.1,-25.05 -12.65,-2.31"
       style="fill:#566b30;fill-opacity:1;fill-rule:nonzero;stroke:none"
       id="path164" /><path
       d="m 1685.15,3749.27 -1.1,25.05 22.42,4.09 10.73,-21.83 -5.61,-2.48 -26.44,-4.83"
       style="fill:#62773b;fill-opacity:1;fill-rule:nonzero;stroke:none"
       id="path166" /><path
       d="m 2115.76,3827.84 276.79,-1516.85 -664.43,-121.22 -276.74,1516.85 664.38,121.22"
       style="fill:#6e7f37;fill-opacity:1;fill-rule:nonzero;stroke:none"
       id="path168" /><path
       d="m 2227.71,2989.51 c -28.54,-105.16 -133.68,-195.43 -271.69,-220.6 -122.08,-22.27 -238.04,12.13 -307.41,81.46 l 85.07,-466.15 c 73.38,13.38 143.72,-35.27 157.1,-108.65 l 319.27,58.26 c -13.38,73.38 35.24,143.72 108.61,157.11 l -90.95,498.57"
       style="fill:#4b632f;fill-opacity:1;fill-rule:nonzero;stroke:none"
       id="path170" /><path
       d="m 1633.86,3683.79 c 13.41,-73.38 -35.27,-143.74 -108.63,-157.11 l 78.45,-429.94 c 40.39,89.32 136.77,162.49 258.81,184.74 138.03,25.19 268.27,-22.12 332.08,-110.44 l -84.35,462.38 c -73.36,-13.4 -143.73,35.22 -157.09,108.61 h -0.03 l -319.24,-58.24"
       style="fill:#4b632f;fill-opacity:1;fill-rule:nonzero;stroke:none"
       id="path172" /><path
       d="m 2211.56,2888.65 c -24.56,-96.82 -117.22,-179.38 -239.48,-201.7 -108.11,-19.71 -211.23,12.81 -273.2,77.24 l 60.29,-330.37 c 65,11.84 127.71,-33.5 140.08,-101.27 l 282.77,51.57 c -12.36,67.8 30.29,132.36 95.29,144.24 v -0.01 l -65.75,360.3"
       style="fill:#6e7f37;fill-opacity:1;fill-rule:nonzero;stroke:none"
       id="path174" /><path
       d="m 1661.88,3633.47 c 12.38,-67.77 -30.29,-132.36 -95.29,-144.2 l 56.5,-309.45 c 35.19,82.15 120.19,149 228.29,168.72 122.23,22.3 238.1,-22.21 295.27,-104.13 l -61.9,339.38 c -64.98,-11.85 -127.73,33.48 -140.09,101.28 l -282.78,-51.59 v -0.01"
       style="fill:#6e7f37;fill-opacity:1;fill-rule:nonzero;stroke:none"
       id="path176" /><path
       d="m 1997.86,2628.3 c 51.93,9.47 101.7,-24.94 111.17,-76.87 9.49,-51.92 -24.95,-101.71 -76.85,-111.16 -51.95,-9.48 -101.73,24.94 -111.16,76.86 -9.51,51.92 24.92,101.71 76.84,111.17"
       style="fill:#4b632f;fill-opacity:1;fill-rule:nonzero;stroke:none"
       id="path178" /><path
       d="m 1819.77,3604.48 c 51.9,9.47 101.68,-24.94 111.16,-76.87 9.48,-51.91 -24.94,-101.69 -76.86,-111.17 -51.93,-9.47 -101.7,24.94 -111.18,76.86 -9.47,51.93 24.93,101.7 76.88,111.18"
       style="fill:#4b632f;fill-opacity:1;fill-rule:nonzero;stroke:none"
       id="path180" /><path
       d="m 2147.18,3078.27 c -3.01,10.18 -6.29,18.23 -9.91,24.19 -3.59,5.96 -8.26,11.37 -13.96,16.25 -9.75,8.26 -21.93,14.01 -36.64,17.25 -14.67,3.26 -29.77,3.46 -45.24,0.64 -44.56,-8.13 -78.32,-40.18 -101.33,-96.11 l 207.08,37.78 m -447.97,-97.18 c 3.61,-14.84 8.65,-26.79 15.1,-35.89 7.6,-10.46 18.27,-18.09 31.94,-22.9 13.67,-4.8 28.14,-5.8 43.41,-3 18.11,3.29 33.67,11.49 46.58,24.56 7.15,7.21 12.93,14.95 17.37,23.15 4.45,8.24 10.36,22.25 17.73,42.07 l 1.37,3.66 -173.5,-31.65 m -7.33,-1.35 -50.52,-9.2 -2.75,14.95 50.56,9.23 c -2.85,23.06 -1.59,44.35 3.78,63.87 4.62,16.19 12.17,29.58 22.72,40.22 10.53,10.6 23.01,17.25 37.42,19.87 11.29,2.06 21.41,0.54 30.35,-4.59 8.96,-5.13 14.31,-12.45 16.06,-21.96 1.33,-7.33 -0.08,-13.99 -4.27,-20.01 -4.17,-6.03 -10.01,-9.76 -17.54,-11.11 -4.87,-0.89 -9.83,-0.78 -14.85,0.37 l -13.72,3.69 c -5.02,1.16 -10.71,1.13 -17.19,-0.05 -9.25,-1.68 -16.94,-5.83 -22.92,-12.43 -6.01,-6.57 -9.91,-15.07 -11.7,-25.49 -1.38,-8.72 -1.55,-19.07 -0.5,-30.99 l 181.8,33.17 1.38,3.7 c 15.84,43.84 31.88,75.73 48.13,95.65 10.89,13.21 23.72,24.31 38.43,33.3 14.72,8.97 30.07,14.93 46.03,17.85 22.17,4.03 43.18,2.37 63.07,-4.99 19.89,-7.37 36.43,-19.58 49.62,-36.63 12.35,-16.3 22.1,-35.81 29.23,-58.53 l 54.16,9.86 2.72,-14.96 -53.15,-9.69 c 3.79,-20.84 3.33,-42.66 -1.42,-65.52 -4.9,-23.56 -13.97,-42.79 -27.29,-57.7 -13.28,-14.89 -29.6,-24.11 -48.87,-27.64 -14.62,-2.66 -27.67,-1.03 -39.18,4.88 -11.5,5.92 -18.26,14.42 -20.29,25.47 -1.35,7.35 -0.04,13.81 3.83,19.44 3.92,5.64 9.49,9.12 16.77,10.45 7.5,1.35 17.45,-1.05 29.77,-7.28 7.01,-3.31 12.66,-5.42 16.91,-6.36 4.29,-0.93 8.87,-0.96 13.74,-0.06 11.95,2.18 22.34,8.13 31.17,17.87 8.85,9.75 14.82,21.76 17.9,36.07 2.99,13.82 2.9,29.25 -0.22,46.32 l -0.46,2.67 -217.06,-39.6 -7.51,-20.96 c -7.14,-19.83 -13.3,-35.1 -18.44,-45.77 -5.14,-10.68 -11.13,-20.54 -17.97,-29.54 -18.34,-23.75 -41.57,-38.17 -69.72,-43.3 -17.71,-3.24 -35.06,-2.05 -52,3.57 -16.93,5.6 -31.4,14.96 -43.44,28.12 -15.48,17.1 -26.34,38.35 -32.57,63.77"
       style="fill:#4b632f;fill-opacity:1;fill-rule:nonzero;stroke:none"
       id="path182" /><path
       d="m 1735.41,2220.6 -27.67,151.66 64.22,-144.99 -36.55,-6.67 m -260.65,1428.59 -5.68,31.15 17.48,-25.92 -11.8,-5.23"
       style="fill:#7c8d45;fill-opacity:1;fill-rule:nonzero;stroke:none"
       id="path184" /><path
       d="m 2438.66,2389.79 -33.77,76.22 -2.55,57.99 55.66,-125.64 -19.34,-8.57"
       style="fill:#c4937a;fill-opacity:1;fill-rule:nonzero;stroke:none"
       id="path186" /><path
       d="m 2404.89,2466.01 -32.55,73.5 -14.62,80.1 -0.25,5.68 44.87,-101.29 2.55,-57.99 m -596.37,1331.02 25,11.07 2.66,-6.02 -27.66,-5.05"
       style="fill:#566b30;fill-opacity:1;fill-rule:nonzero;stroke:none"
       id="path188" /><path
       d="m 2357.72,2619.61 -1.58,8.69 1.33,-3.01 0.25,-5.68"
       style="fill:#3d5629;fill-opacity:1;fill-rule:nonzero;stroke:none"
       id="path190" /><path
       d="m 2372.34,2539.51 -12.32,27.8 -2.3,52.3 14.62,-80.1 m -654.48,1215.73 -0.66,1.34 91.32,40.45 27.66,5.05 7.88,-17.78 c -0.31,-2.09 -0.66,-4.16 -1.06,-6.23 l -17.88,-3.26 -0.89,2.03 -8.39,-3.72 -97.98,-17.88"
       style="fill:#455c29;fill-opacity:1;fill-rule:nonzero;stroke:none"
       id="path192" /><path
       d="m 2360.02,2567.31 -24.22,54.68 -16.03,87.86 -0.03,0.62 36.4,-82.17 1.58,-8.69 2.3,-52.3"
       style="fill:#314a23;fill-opacity:1;fill-rule:nonzero;stroke:none"
       id="path194" /><path
       d="m 1843,3778.07 c 0.4,2.07 0.75,4.14 1.06,6.23 l 2.47,-5.58 -3.53,-0.65"
       style="fill:#314a23;fill-opacity:1;fill-rule:nonzero;stroke:none"
       id="path196" /><path
       d="m 2319.77,2709.85 -0.18,0.95 0.15,-0.33 0.03,-0.62"
       style="fill:#455c29;fill-opacity:1;fill-rule:nonzero;stroke:none"
       id="path198" /><path
       d="m 1711.59,3754.1 5.61,2.48 0.66,-1.34 -6.27,-1.14"
       style="fill:#4e6532;fill-opacity:1;fill-rule:nonzero;stroke:none"
       id="path200" /><path
       d="m 2335.8,2621.99 -69.79,157.54 -16.2,88.8 69.78,-157.53 0.18,-0.95 16.03,-87.86 m -135.07,304.92 -40.85,92.21 c 1.59,15.75 1.03,30.98 -1.65,45.72 l 4.19,0.77 50.95,-115.01 c -3.77,-8.04 -7.99,-15.95 -12.64,-23.69 m -47.3,106.77 -12.41,28.02 9.57,1.75 0.46,-2.67 c 1.74,-9.55 2.54,-18.58 2.38,-27.1 m -18.74,42.31 -22.31,50.35 c 3.94,-2.24 7.58,-4.79 10.93,-7.63 5.7,-4.88 10.37,-10.29 13.96,-16.25 3.62,-5.96 6.9,-14.01 9.91,-24.19 l -12.49,-2.28 m 19.81,3.64 c -7.13,22.72 -16.88,42.23 -29.23,58.53 -8.63,11.16 -18.7,20.24 -30.2,27.25 l -47.01,106.13 c 9.43,-2.95 18.61,-6.27 27.55,-9.95 l 80.48,-181.67 -1.59,-0.29 m -653.84,553.88 -14.1,20.91 225.03,99.68 6.27,1.14 97.98,17.88 -315.18,-139.61 m 347.47,89.37 -23.01,51.93 17.88,3.26 3.53,0.65 23.01,-51.93 -21.41,-3.91"
       style="fill:#566b30;fill-opacity:1;fill-rule:nonzero;stroke:none"
       id="path202" /><path
       d="m 2266.01,2779.53 -65.28,147.38 c 4.65,7.74 8.87,15.65 12.64,23.69 l 36.44,-82.27 16.2,-88.8"
       style="fill:#3d5629;fill-opacity:1;fill-rule:nonzero;stroke:none"
       id="path204" /><path
       d="m 2075.61,3261.59 c -8.94,3.68 -18.12,7 -27.55,9.95 l -29.04,65.57 c 9.68,-3.33 19.08,-7.12 28.16,-11.34 l 28.43,-64.18 m -204.77,410.02 -22.71,51.27 21.41,3.91 22.71,-51.27 -21.41,-3.91"
       style="fill:#3d5629;fill-opacity:1;fill-rule:nonzero;stroke:none"
       id="path206" /><path
       d="m 2047.18,3325.77 c -9.08,4.22 -18.48,8.01 -28.16,11.34 l -148.18,334.5 21.41,3.91 154.93,-349.75"
       style="fill:#566b30;fill-opacity:1;fill-rule:nonzero;stroke:none"
       id="path208" /><path
       d="m 2159.88,3019.12 -6.45,14.56 c 0.16,8.52 -0.64,17.55 -2.38,27.1 l -0.46,2.67 -9.57,-1.75 -6.33,14.29 12.49,2.28 c -3.01,10.18 -6.29,18.23 -9.91,24.19 -3.59,5.96 -8.26,11.37 -13.96,16.25 -3.35,2.84 -6.99,5.39 -10.93,7.63 l -17.31,39.07 c 11.5,-7.01 21.57,-16.09 30.2,-27.25 12.35,-16.3 22.1,-35.81 29.23,-58.53 l 1.59,0.29 6.33,-14.31 -4.19,-0.77 c 2.68,-14.74 3.24,-29.97 1.65,-45.72"
       style="fill:#3d5629;fill-opacity:1;fill-rule:nonzero;stroke:none"
       id="path210" /><path
       d="m 1226.07,3511.88 -10.05,22.7 29.65,13.13 c 0.35,-0.35 0.7,-0.7 1.06,-1.05 l 16.82,-18.18 -37.48,-16.6 m 233.49,103.42 -22.83,17.05 26.09,11.55 4.58,-25.13 -7.84,-3.47"
       style="fill:#62b08e;fill-opacity:1;fill-rule:nonzero;stroke:none"
       id="path212" /><path
       d="m 1263.55,3528.48 -16.82,18.18 c -0.36,0.35 -0.71,0.7 -1.06,1.05 l 191.06,84.64 22.83,-17.05 -196.01,-86.82"
       style="fill:#c4937a;fill-opacity:1;fill-rule:nonzero;stroke:none"
       id="path214" /><path
       d="m 1467.4,3618.77 -4.58,25.13 11.94,5.29 4.59,-25.12 -11.95,-5.3"
       style="fill:#566b30;fill-opacity:1;fill-rule:nonzero;stroke:none"
       id="path216" /><path
       d="m 1479.35,3624.07 -4.59,25.12 11.8,5.23 14.1,-20.91 -21.31,-9.44"
       style="fill:#62773b;fill-opacity:1;fill-rule:nonzero;stroke:none"
       id="path218" /><path
       d="m 1824.23,3776.84 624.49,-1409.76 -617.52,-273.54 -624.46,1409.77 617.49,273.53"
       style="fill:#6e7f37;fill-opacity:1;fill-rule:nonzero;stroke:none"
       id="path220" /><path
       d="m 2129.48,2988.08 c -3.08,-108.9 -84.19,-221.3 -212.44,-278.12 -113.45,-50.24 -234.27,-43.99 -317.92,7.17 l 191.92,-433.28 c 68.19,30.23 147.97,-0.57 178.19,-68.77 l 296.73,131.43 c -30.21,68.2 0.59,147.97 68.79,178.19 v -0.01 l -205.27,463.39"
       style="fill:#4b632f;fill-opacity:1;fill-rule:nonzero;stroke:none"
       id="path222" /><path
       d="m 1389.48,3523.88 c 30.2,-68.22 -0.58,-147.99 -68.79,-178.2 l 177,-399.59 c 18.36,96.31 94.89,190 208.34,240.27 128.25,56.8 265.99,41.34 348.72,-29.57 l -190.37,429.73 c -68.18,-30.22 -147.98,0.59 -178.16,68.77 v 0.02 l -296.74,-131.43"
       style="fill:#4b632f;fill-opacity:1;fill-rule:nonzero;stroke:none"
       id="path224" /><path
       d="m 2137.43,2886.27 c -1.21,-99.9 -71.98,-201.9 -185.57,-252.2 -100.46,-44.52 -208.34,-37.06 -283.69,11.04 l 136.02,-307.05 c 60.41,26.75 132.01,-2.62 159.91,-65.63 l 262.81,116.42 c -27.9,63 -1.55,135.77 58.85,162.52 l -148.33,334.9"
       style="fill:#6e7f37;fill-opacity:1;fill-rule:nonzero;stroke:none"
       id="path226" /><path
       d="m 1428.52,3481.53 c 27.92,-63.01 1.57,-135.77 -58.84,-162.52 l 127.4,-287.61 c 14.98,88.13 81.97,173.01 182.42,217.51 113.61,50.34 236.68,34.2 311.46,-32.01 l -139.72,315.42 v -0.01 c -60.39,-26.76 -131.99,2.64 -159.9,65.65 l -262.82,-116.43"
       style="fill:#6e7f37;fill-opacity:1;fill-rule:nonzero;stroke:none"
       id="path228" /><path
       d="m 1990.67,2583.06 c 48.27,21.37 104.71,-0.42 126.07,-48.68 21.41,-48.24 -0.4,-104.68 -48.63,-126.08 -48.28,-21.38 -104.74,0.41 -126.09,48.69 -21.4,48.24 0.38,104.71 48.65,126.07"
       style="fill:#4b632f;fill-opacity:1;fill-rule:nonzero;stroke:none"
       id="path230" /><path
       d="m 1588.79,3490.35 c 48.25,21.36 104.7,-0.44 126.1,-48.67 21.35,-48.29 -0.46,-104.73 -48.69,-126.11 -48.28,-21.38 -104.71,0.41 -126.11,48.66 -21.36,48.27 0.45,104.73 48.7,126.12"
       style="fill:#4b632f;fill-opacity:1;fill-rule:nonzero;stroke:none"
       id="path232" /><path
       d="m 2030.41,3055.51 c -5.31,9.18 -10.4,16.23 -15.31,21.18 -4.9,4.94 -10.68,9.12 -17.39,12.54 -11.39,5.73 -24.6,8.47 -39.62,8.17 -15.05,-0.27 -29.76,-3.59 -44.19,-9.99 -41.41,-18.35 -66.7,-57.37 -75.97,-117.16 l 192.48,85.26 m -412.73,-199.47 c 6.98,-13.56 14.67,-24.03 23.08,-31.34 9.85,-8.38 21.99,-13.3 36.42,-14.77 14.42,-1.47 28.71,0.95 42.91,7.24 16.84,7.46 30.03,19.06 39.55,34.8 5.23,8.69 9.06,17.58 11.43,26.58 2.39,9.05 4.86,24.07 7.35,45.04 l 0.51,3.89 -161.25,-71.44 m -6.81,-3 -46.97,-20.8 -6.16,13.9 46.96,20.79 c -8.15,21.76 -11.91,42.78 -11.28,63.01 0.68,16.8 4.91,31.6 12.65,44.4 7.79,12.81 18.36,22.17 31.72,28.1 10.52,4.65 20.73,5.53 30.62,2.67 9.9,-2.89 16.81,-8.77 20.74,-17.62 3.01,-6.8 3.18,-13.62 0.55,-20.45 -2.64,-6.84 -7.43,-11.8 -14.48,-14.9 -4.5,-2.01 -9.35,-3.06 -14.51,-3.12 l -14.2,0.37 c -5.13,-0.07 -10.7,-1.4 -16.68,-4.06 -8.63,-3.83 -15.11,-9.66 -19.42,-17.46 -4.3,-7.83 -6.05,-17 -5.36,-27.53 0.71,-8.8 2.97,-18.9 6.76,-30.24 l 168.97,74.85 0.49,3.9 c 5.11,46.35 13.21,81.11 24.4,104.29 7.45,15.37 17.31,29.16 29.51,41.36 12.22,12.18 25.75,21.55 40.57,28.12 20.61,9.14 41.45,12.46 62.48,9.95 21.08,-2.49 40.01,-10.48 56.83,-24 15.83,-12.92 29.88,-29.61 42.14,-50.07 l 50.37,22.33 6.13,-13.92 -49.42,-21.87 c 8.58,-19.38 13.25,-40.71 13.95,-64.05 0.8,-24.03 -3.51,-44.86 -12.97,-62.47 -9.45,-17.61 -23.15,-30.38 -41.05,-38.33 -13.58,-6.01 -26.68,-7.51 -39.24,-4.44 -12.54,3.06 -21.11,9.73 -25.69,20.02 -3.01,6.83 -3.26,13.4 -0.82,19.8 2.47,6.37 7.1,11.07 13.87,14.07 6.98,3.08 17.19,3.05 30.65,-0.09 7.58,-1.57 13.53,-2.33 17.92,-2.22 4.39,0.09 8.85,1.15 13.35,3.14 11.13,4.92 19.8,13.14 26.15,24.69 6.31,11.54 9.28,24.63 8.96,39.27 -0.37,14.12 -4.07,29.12 -11.12,44.97 l -1.06,2.47 -201.74,-89.35 -2.38,-22.12 c -2.31,-20.99 -4.69,-37.27 -7.21,-48.82 -2.48,-11.58 -6,-22.56 -10.51,-32.94 -12.28,-27.38 -31.5,-46.85 -57.65,-58.44 -16.49,-7.29 -33.62,-10.21 -51.4,-8.71 -17.76,1.49 -34.02,7.22 -48.8,17.2 -19.07,12.97 -34.6,31.09 -46.62,54.35"
       style="fill:#4b632f;fill-opacity:1;fill-rule:nonzero;stroke:none"
       id="path234" /><path
       d="m 1831.07,2125.22 -118.85,268.31 30.55,-0.71 48.27,-108.97 c 17.79,7.88 36.37,11.62 54.65,11.62 51.79,0 101.2,-29.98 123.54,-80.39 l 296.73,131.43 c -24.52,55.37 -8.84,118.35 34.41,156.26 l 124.95,-114.31 -594.25,-263.24 m 159.78,627 0.76,33.02 19.22,-17.58 c -6.43,-5.32 -13.09,-10.46 -19.98,-15.44"
       style="fill:#7c8d45;fill-opacity:1;fill-rule:nonzero;stroke:none"
       id="path236" /><path
       d="m 1969.23,2215.08 c -22.34,50.41 -71.75,80.39 -123.54,80.39 -18.28,0 -36.86,-3.74 -54.65,-11.62 l -48.27,108.97 37.55,-0.86 23.87,-53.9 c 15.15,6.71 31.02,9.89 46.72,9.89 46.87,0 92.29,-28.32 113.19,-75.52 l 262.81,116.42 c -23.98,54.15 -7.88,115.52 35.47,148.67 l 37.99,-34.75 c -43.25,-37.91 -58.93,-100.89 -34.41,-156.26 l -296.73,-131.43 m 19.32,437.86 2.3,99.28 c 6.89,4.98 13.55,10.12 19.98,15.44 l 55.8,-51.05 c -21.72,-24.2 -47.96,-45.86 -78.08,-63.67"
       style="fill:#5b733c;fill-opacity:1;fill-rule:nonzero;stroke:none"
       id="path238" /><path
       d="m 1964.1,2272.43 c -20.9,47.2 -66.32,75.52 -113.19,75.52 -15.7,0 -31.57,-3.18 -46.72,-9.89 l -23.87,53.9 162.99,-3.78 c 0.31,-0.01 0.63,-0.01 0.94,-0.01 16.63,0 30.91,10.44 36.53,25.22 14.64,-8.64 31.47,-13.3 48.66,-13.3 12.93,0 26.08,2.63 38.67,8.21 48.23,21.4 70.04,77.84 48.63,126.08 -15.79,35.68 -50.75,56.89 -87.42,56.89 -12.92,0 -26.06,-2.64 -38.65,-8.21 -1.28,-0.56 -2.53,-1.15 -3.77,-1.77 l 1.65,71.65 c 30.12,17.81 56.36,39.47 78.08,63.67 l 195.75,-179.09 c -43.35,-33.15 -59.45,-94.52 -35.47,-148.67 L 1964.1,2272.43"
       style="fill:#7c8d45;fill-opacity:1;fill-rule:nonzero;stroke:none"
       id="path240" /><path
       d="m 2029.44,2400.09 c -17.19,0 -34.02,4.66 -48.66,13.3 1.53,4.04 2.42,8.41 2.53,12.98 l 3.59,154.92 c 1.24,0.62 2.49,1.21 3.77,1.77 12.59,5.57 25.73,8.21 38.65,8.21 36.67,0 71.63,-21.21 87.42,-56.89 21.41,-48.24 -0.4,-104.68 -48.63,-126.08 -12.59,-5.58 -25.74,-8.21 -38.67,-8.21"
       style="fill:#5b733c;fill-opacity:1;fill-rule:nonzero;stroke:none"
       id="path242" /><path
       d="m 1438.37,3011.75 -208.27,470.17 124.96,-114.33 c -10.02,-8.78 -21.53,-16.22 -34.37,-21.91 l 119.18,-269.07 -1.5,-64.86"
       style="fill:#7c8d45;fill-opacity:1;fill-rule:nonzero;stroke:none"
       id="path244" /><path
       d="m 1439.87,3076.61 -119.18,269.07 c 12.84,5.69 24.35,13.13 34.37,21.91 l 37.99,-34.75 c -7.08,-5.41 -14.89,-10.07 -23.37,-13.83 l 72.04,-162.63 -1.85,-79.77"
       style="fill:#5b733c;fill-opacity:1;fill-rule:nonzero;stroke:none"
       id="path246" /><path
       d="m 1441.72,3156.38 -72.04,162.63 c 8.48,3.76 16.29,8.42 23.37,13.83 l 77.87,-71.23 c -15.66,-4.81 -27.2,-19.2 -27.61,-36.48 l -1.59,-68.75"
       style="fill:#7c8d45;fill-opacity:1;fill-rule:nonzero;stroke:none"
       id="path248" /><path
       d="m 1963.33,3252.21 c 21.56,-0.51 38.67,-18.41 38.16,-40 l -18.18,-785.84 c -0.52,-21.59 -18.4,-38.7 -40,-38.19 l -480.03,11.12 c -21.57,0.5 -38.68,18.4 -38.16,39.99 l 18.19,785.84 c 0.51,21.6 18.42,38.69 40,38.18 l 480.02,-11.1"
       style="fill:#a11e30;fill-opacity:1;fill-rule:nonzero;stroke:none"
       id="path250" /><path
       d="m 1951.25,3231.61 c 20.56,-0.47 36.84,-17.51 36.33,-38.05 l -17.32,-747.92 c -0.49,-20.54 -17.51,-36.79 -38.08,-36.33 l -456.82,10.58 c -20.53,0.49 -36.81,17.53 -36.33,38.06 l 17.33,747.89 c 0.5,20.55 17.52,36.82 38.06,36.35 l 456.83,-10.58"
       style="fill:#c0253b;fill-opacity:1;fill-rule:nonzero;stroke:none"
       id="path252" /><path
       d="m 1502.43,2456.38 c -4.37,0.1 -8.07,1.66 -11.14,4.68 -3.01,3.02 -4.45,6.63 -4.38,10.81 0.11,4.2 1.73,7.72 4.9,10.61 3.13,2.85 6.92,4.26 11.32,4.16 l 5.69,-0.14 -0.24,-10.12 -5.69,0.16 c -1.6,0.02 -2.98,-0.43 -4.12,-1.39 -1.15,-0.94 -1.73,-2.12 -1.75,-3.5 -0.02,-1.4 0.51,-2.61 1.59,-3.61 1.11,-1 2.45,-1.53 4.08,-1.54 l 43.09,-1.01 c 1.61,-0.03 2.99,0.43 4.13,1.36 1.16,0.97 1.74,2.13 1.76,3.52 0.06,1.42 -0.51,2.6 -1.58,3.61 -1.1,1 -2.47,1.52 -4.07,1.54 l -5.68,0.13 0.25,10.11 5.66,-0.12 c 4.38,-0.11 8.12,-1.68 11.14,-4.68 3.02,-3.02 4.49,-6.63 4.39,-10.83 -0.09,-4.18 -1.72,-7.71 -4.9,-10.58 -3.15,-2.87 -6.91,-4.27 -11.32,-4.16 l -43.13,0.99"
       style="fill:#ffffff;fill-opacity:1;fill-rule:nonzero;stroke:none"
       id="path254" /><path
       d="m 1499.25,2505.82 41.78,-0.96 0.08,5 c 0.05,1.42 -0.5,2.61 -1.63,3.6 -1.13,1.01 -2.46,1.53 -4.03,1.56 l -30.22,0.7 c -1.59,0.05 -2.96,-0.41 -4.13,-1.36 -1.13,-0.94 -1.72,-2.11 -1.74,-3.52 z m -10,5.78 c 0.25,4.03 1.93,7.45 5.09,10.22 3.13,2.79 6.82,4.12 11.11,4.02 l 30.27,-0.7 c 4.49,-0.11 8.27,-1.77 11.32,-4.99 l 14.58,4.38 -0.24,-10.64 -10.27,-2.97 0.03,-1.21 -0.1,-5.08 10.1,-0.24 -0.21,-10.1 -56.16,1.3 -15.87,0.37 0.35,15.12 v 0.52"
       style="fill:#ffffff;fill-opacity:1;fill-rule:nonzero;stroke:none"
       id="path256" /><path
       d="m 1552.31,2558.98 10.09,-0.21 -0.32,-15.14 -0.22,-10.1 -10.13,0.23 -51.82,1.19 -10.12,0.24 0.24,10.1 0.23,10.12 10.1,-0.25 -0.21,-10.1 10.03,-0.23 0.34,15.12 10.11,-0.23 -0.36,-15.13 31.66,-0.73 0.38,15.12"
       style="fill:#ffffff;fill-opacity:1;fill-rule:nonzero;stroke:none"
       id="path258" /><path
       d="m 1490.94,2585.06 v -0.53 z m 10,-5.78 51.8,-1.2 0.12,5 c 0.03,1.4 -0.49,2.62 -1.61,3.6 -1.1,0.99 -2.46,1.52 -4.03,1.55 l -40.29,0.95 c -1.61,0.04 -2.98,-0.43 -4.11,-1.37 -1.13,-0.95 -1.75,-2.12 -1.76,-3.52 z m -10,5.7 c 0.26,4.09 1.94,7.52 5.08,10.29 3.15,2.77 6.86,4.11 11.14,4.02 l 40.31,-0.93 c 4.39,-0.12 8.09,-1.66 11.11,-4.68 3.01,-3.04 4.51,-6.63 4.4,-10.83 l -0.03,-0.29 -0.35,-14.84 -71.99,1.68 0.33,15.13 v 0.45"
       style="fill:#ffffff;fill-opacity:1;fill-rule:nonzero;stroke:none"
       id="path260" /><path
       d="m 1491.49,2608.63 0.25,10.12 72.02,-1.67 -0.23,-10.11 -72.04,1.66"
       style="fill:#ffffff;fill-opacity:1;fill-rule:nonzero;stroke:none"
       id="path262" /><path
       d="m 1492.53,2652.97 10.12,-0.24 -0.21,-7.57 61.95,-1.42 -0.27,-10.13 -61.87,1.45 -0.21,-7.58 -10.11,0.23 0.6,25.26"
       style="fill:#ffffff;fill-opacity:1;fill-rule:nonzero;stroke:none"
       id="path264" /><path
       d="m 1507.62,2680.24 c -4.39,0.12 -8.1,1.67 -11.13,4.68 -3,3.03 -4.49,6.62 -4.41,10.82 0.12,4.2 1.74,7.73 4.9,10.61 3.17,2.87 6.97,4.25 11.33,4.15 l 5.7,-0.12 -0.24,-10.13 -5.66,0.15 c -1.62,0.03 -2.99,-0.44 -4.14,-1.36 -1.15,-0.97 -1.72,-2.13 -1.75,-3.52 -0.04,-1.4 0.49,-2.61 1.57,-3.6 1.1,-1.02 2.46,-1.52 4.07,-1.56 l 43.1,-1.01 c 1.61,-0.04 2.99,0.43 4.14,1.39 1.14,0.93 1.74,2.09 1.77,3.5 0.01,1.39 -0.51,2.59 -1.61,3.6 -1.09,1.01 -2.47,1.51 -4.04,1.55 l -5.7,0.13 0.23,10.11 5.7,-0.12 c 4.38,-0.12 8.09,-1.66 11.13,-4.68 3.03,-3.02 4.5,-6.62 4.37,-10.81 -0.08,-4.2 -1.69,-7.75 -4.87,-10.6 -3.18,-2.89 -6.93,-4.28 -11.36,-4.17 l -43.1,0.99"
       style="fill:#ffffff;fill-opacity:1;fill-rule:nonzero;stroke:none"
       id="path266" /><path
       d="m 1546.38,2736.51 -16.77,0.38 -20.66,0.48 c -1.62,0.05 -2.99,-0.41 -4.12,-1.38 -1.13,-0.91 -1.72,-2.1 -1.77,-3.49 -0.04,-1.41 0.5,-2.6 1.62,-3.6 1.08,-0.99 2.43,-1.52 4.04,-1.55 l 20.65,-0.48 16.79,-0.39 z m -37.92,-19.28 c -4.38,0.11 -8.1,1.67 -11.11,4.68 -3.01,3.03 -4.49,6.64 -4.4,10.82 0.11,4.19 1.73,7.73 4.89,10.59 3.18,2.89 6.95,4.27 11.33,4.16 l 57.6,-1.32 -0.26,-10.11 -10.08,0.23 -0.27,-10.04 10.13,-0.24 -0.23,-10.09 -57.6,1.32"
       style="fill:#ffffff;fill-opacity:1;fill-rule:nonzero;stroke:none"
       id="path268" /><path
       d="m 1505.26,2766.6 41.78,-0.96 0.12,5 c 0.04,1.41 -0.51,2.61 -1.6,3.63 -1.17,0.98 -2.5,1.49 -4.05,1.53 l -30.22,0.71 c -1.61,0.03 -2.98,-0.42 -4.11,-1.36 -1.15,-0.95 -1.77,-2.13 -1.8,-3.53 z m -9.99,5.78 c 0.27,4.03 1.95,7.44 5.09,10.24 3.16,2.76 6.86,4.1 11.15,4 l 30.26,-0.7 c 4.47,-0.12 8.28,-1.77 11.34,-4.98 l 14.57,4.37 -0.28,-10.64 -10.24,-2.96 0.04,-1.22 -0.12,-5.09 10.12,-0.23 -0.25,-10.11 -56.14,1.31 -15.89,0.36 0.34,15.12 0.01,0.53"
       style="fill:#ffffff;fill-opacity:1;fill-rule:nonzero;stroke:none"
       id="path270" /><path
       d="m 1496.18,2811.61 v -0.52 z m 10,-5.76 51.82,-1.22 0.11,5.04 c 0.02,1.38 -0.49,2.58 -1.62,3.59 -1.08,0.99 -2.42,1.51 -4.05,1.55 l -40.26,0.93 c -1.59,0.02 -2.95,-0.41 -4.09,-1.37 -1.18,-0.94 -1.75,-2.12 -1.8,-3.51 z m -10,5.69 c 0.27,4.08 1.93,7.53 5.11,10.3 3.1,2.76 6.82,4.11 11.14,4 l 40.26,-0.93 c 4.39,-0.1 8.09,-1.66 11.15,-4.67 3.02,-3.03 4.47,-6.62 4.37,-10.83 l 0.02,-0.28 -0.35,-14.82 -72.03,1.66 0.33,15.12 v 0.45"
       style="fill:#ffffff;fill-opacity:1;fill-rule:nonzero;stroke:none"
       id="path272" /><path
       d="m 1810.36,2519.94 c -2.3,0.06 -4.3,-0.74 -6,-2.35 -1.74,-1.62 -2.62,-3.58 -2.67,-5.92 -0.04,-2.32 0.75,-4.31 2.36,-6.02 1.66,-1.7 3.63,-2.6 5.89,-2.64 l 27.88,-0.65 c 2.3,-0.06 4.29,0.75 6.02,2.36 1.7,1.65 2.59,3.6 2.65,5.91 0.04,2.36 -0.74,4.36 -2.39,6.04 -1.61,1.69 -3.58,2.57 -5.89,2.62 z m 34.67,-2.42 c 2.05,-2.19 3.08,-4.74 3.01,-7.68 -0.09,-2.89 -1.18,-5.37 -3.36,-7.43 -2.15,-2.08 -4.76,-3.1 -7.7,-3.03 l -27.77,0.65 c -2.94,0.07 -5.44,1.18 -7.52,3.37 -2.08,2.15 -3.08,4.68 -3.01,7.59 0.05,2.93 1.19,5.45 3.38,7.51 2.17,2.09 4.71,3.08 7.66,3.02 l 27.77,-0.64 c 2.95,-0.07 5.44,-1.2 7.54,-3.36 z m -35.28,5.12 c -3.26,0.07 -6.09,-1.04 -8.48,-3.34 -2.39,-2.27 -3.65,-5.04 -3.7,-8.28 -0.1,-3.21 1.02,-6 3.32,-8.4 2.3,-2.41 5.05,-3.63 8.32,-3.7 l 27.77,-0.65 c 3.23,-0.09 6.08,1.02 8.46,3.31 2.4,2.29 3.63,5.04 3.71,8.23 0.08,3.24 -1.02,6.07 -3.34,8.46 -2.28,2.41 -5.05,3.66 -8.26,3.73 z m 38.49,-2.06 c 2.7,-2.83 4.03,-6.19 3.92,-10.09 -0.08,-3.83 -1.55,-7.13 -4.39,-9.86 -2.83,-2.72 -6.21,-4.05 -10.08,-3.96 l -27.84,0.64 c -3.86,0.09 -7.14,1.57 -9.88,4.43 -2.72,2.86 -4.07,6.21 -3.94,10.05 0.04,3.9 1.54,7.21 4.41,9.91 2.84,2.71 6.18,4.01 10.04,3.92 l 27.85,-0.65 c 3.89,-0.09 7.19,-1.54 9.91,-4.39"
       style="fill:#ffffff;fill-opacity:1;fill-rule:nonzero;stroke:none"
       id="path274" /><path
       d="m 1811.06,2551.07 c -2.3,0.05 -4.28,-0.71 -6.01,-2.33 -1.68,-1.6 -2.56,-3.59 -2.65,-5.92 -0.05,-2.31 0.75,-4.31 2.37,-6.02 1.68,-1.71 3.6,-2.59 5.9,-2.64 l 27.86,-0.66 c 2.3,-0.04 4.29,0.74 6.01,2.39 1.73,1.63 2.6,3.59 2.66,5.89 0.07,2.33 -0.75,4.35 -2.39,6.04 -1.64,1.69 -3.59,2.55 -5.86,2.61 z m 34.66,-2.4 c 2.07,-2.19 3.1,-4.74 3.01,-7.69 -0.03,-2.88 -1.18,-5.37 -3.33,-7.44 -2.17,-2.08 -4.75,-3.07 -7.68,-3 l -27.8,0.63 c -2.92,0.08 -5.44,1.19 -7.52,3.37 -2.04,2.18 -3.06,4.7 -2.98,7.6 0.03,2.94 1.19,5.45 3.33,7.52 2.19,2.09 4.74,3.08 7.66,2.99 l 27.8,-0.64 c 2.95,-0.06 5.45,-1.18 7.51,-3.34 z m -35.27,5.13 c -3.2,0.07 -6.07,-1.05 -8.45,-3.33 -2.4,-2.29 -3.63,-5.07 -3.73,-8.32 -0.06,-3.19 1.07,-5.99 3.32,-8.4 2.34,-2.38 5.06,-3.63 8.32,-3.69 l 27.8,-0.66 c 3.22,-0.08 6.05,1.05 8.45,3.33 2.4,2.29 3.63,5.03 3.71,8.23 0.07,3.24 -1.01,6.08 -3.32,8.47 -2.3,2.39 -5.08,3.63 -8.31,3.71 z m 38.5,-2.06 c 2.72,-2.86 4.03,-6.2 3.93,-10.1 -0.11,-3.85 -1.54,-7.11 -4.36,-9.85 -2.87,-2.75 -6.21,-4.06 -10.13,-3.97 l -27.83,0.65 c -3.85,0.08 -7.15,1.55 -9.87,4.42 -2.74,2.85 -4.04,6.22 -3.96,10.06 0.08,3.88 1.54,7.19 4.43,9.9 2.85,2.69 6.21,4.01 10.06,3.93 l 27.83,-0.66 c 3.9,-0.07 7.19,-1.55 9.9,-4.38"
       style="fill:#ffffff;fill-opacity:1;fill-rule:nonzero;stroke:none"
       id="path276" /><path
       d="m 1811.81,2582.22 c -2.31,0.04 -4.32,-0.74 -6.03,-2.34 -1.71,-1.6 -2.57,-3.56 -2.63,-5.92 -0.04,-2.3 0.71,-4.3 2.37,-6.01 1.64,-1.71 3.56,-2.61 5.88,-2.66 l 27.86,-0.64 c 2.29,-0.04 4.3,0.75 6.01,2.38 1.71,1.62 2.59,3.59 2.62,5.89 0.06,2.35 -0.71,4.36 -2.35,6.03 -1.61,1.69 -3.61,2.58 -5.88,2.63 z m 34.66,-2.41 c 2.06,-2.18 3.07,-4.73 3.01,-7.68 -0.1,-2.9 -1.2,-5.38 -3.37,-7.45 -2.16,-2.08 -4.73,-3.08 -7.67,-3.01 l -27.79,0.64 c -2.93,0.08 -5.43,1.2 -7.52,3.37 -2.07,2.16 -3.07,4.71 -3.01,7.6 0.09,2.95 1.2,5.45 3.37,7.52 2.18,2.08 4.72,3.07 7.67,3.01 l 27.79,-0.65 c 2.93,-0.06 5.44,-1.17 7.52,-3.35 z m -35.27,5.12 c -3.27,0.09 -6.08,-1.03 -8.49,-3.32 -2.42,-2.3 -3.64,-5.07 -3.72,-8.31 -0.06,-3.19 1.04,-6 3.32,-8.4 2.3,-2.39 5.08,-3.63 8.32,-3.71 l 27.78,-0.63 c 3.26,-0.09 6.07,1.02 8.46,3.31 2.41,2.31 3.65,5.05 3.74,8.23 0.06,3.26 -1.05,6.07 -3.34,8.46 -2.3,2.42 -5.07,3.66 -8.3,3.73 z m 38.5,-2.04 c 2.69,-2.85 4,-6.21 3.89,-10.11 -0.07,-3.84 -1.53,-7.12 -4.36,-9.85 -2.85,-2.73 -6.21,-4.06 -10.11,-3.96 l -27.85,0.64 c -3.84,0.1 -7.12,1.56 -9.84,4.43 -2.77,2.85 -4.06,6.21 -3.99,10.06 0.09,3.89 1.59,7.19 4.44,9.9 2.87,2.7 6.21,4 10.05,3.91 l 27.84,-0.65 c 3.91,-0.08 7.21,-1.54 9.93,-4.37"
       style="fill:#ffffff;fill-opacity:1;fill-rule:nonzero;stroke:none"
       id="path278" /><path
       d="m 1812.86,2628.35 c -2.3,0.04 -4.3,-0.73 -6,-2.34 -1.71,-1.6 -2.6,-3.58 -2.63,-5.91 -0.06,-2.32 0.71,-4.32 2.33,-6.02 1.65,-1.74 3.65,-2.59 5.91,-2.67 l 27.85,-0.63 c 2.3,-0.07 4.29,0.72 6.02,2.36 1.72,1.64 2.61,3.61 2.65,5.92 0.06,2.34 -0.76,4.33 -2.39,6.04 -1.61,1.68 -3.58,2.53 -5.88,2.6 z m 34.65,-2.43 c 2.09,-2.15 3.1,-4.71 3.03,-7.66 -0.04,-2.89 -1.17,-5.38 -3.36,-7.46 -2.17,-2.05 -4.74,-3.07 -7.68,-3.01 l -27.77,0.67 c -2.96,0.05 -5.46,1.18 -7.52,3.34 -2.07,2.17 -3.1,4.69 -3.03,7.59 0.07,2.95 1.21,5.46 3.38,7.53 2.15,2.07 4.7,3.08 7.66,3.03 l 27.79,-0.66 c 2.94,-0.06 5.44,-1.2 7.5,-3.37 z m -35.24,5.13 c -3.26,0.08 -6.09,-1.03 -8.48,-3.31 -2.39,-2.3 -3.61,-5.06 -3.73,-8.31 -0.05,-3.19 1.04,-5.99 3.35,-8.39 2.28,-2.41 5.05,-3.64 8.28,-3.73 l 27.81,-0.63 c 3.22,-0.07 6.04,1.03 8.43,3.32 2.41,2.29 3.66,5.03 3.72,8.23 0.09,3.25 -1.04,6.06 -3.32,8.45 -2.29,2.42 -5.06,3.66 -8.28,3.73 z m 38.49,-2.04 c 2.7,-2.84 4.01,-6.2 3.92,-10.11 -0.08,-3.82 -1.57,-7.12 -4.39,-9.86 -2.85,-2.71 -6.21,-4.05 -10.08,-3.96 l -27.88,0.66 c -3.81,0.09 -7.11,1.56 -9.86,4.41 -2.7,2.88 -4.05,6.22 -3.95,10.06 0.07,3.89 1.54,7.19 4.41,9.91 2.88,2.7 6.22,4 10.07,3.91 l 27.85,-0.63 c 3.92,-0.09 7.19,-1.57 9.91,-4.39"
       style="fill:#ffffff;fill-opacity:1;fill-rule:nonzero;stroke:none"
       id="path280" /><path
       d="m 1813.58,2659.49 c -2.31,0.05 -4.3,-0.71 -6,-2.34 -1.71,-1.6 -2.59,-3.57 -2.67,-5.93 -0.04,-2.3 0.76,-4.3 2.38,-6.01 1.66,-1.71 3.6,-2.59 5.9,-2.64 l 27.84,-0.66 c 2.3,-0.04 4.31,0.74 6.03,2.38 1.7,1.63 2.6,3.6 2.64,5.89 0.07,2.35 -0.71,4.38 -2.37,6.06 -1.62,1.69 -3.61,2.55 -5.88,2.6 z m 34.66,-2.41 c 2.1,-2.17 3.1,-4.73 3,-7.69 -0.06,-2.9 -1.15,-5.36 -3.35,-7.44 -2.17,-2.07 -4.74,-3.08 -7.66,-3 l -27.79,0.63 c -2.94,0.08 -5.42,1.2 -7.52,3.37 -2.08,2.16 -3.05,4.71 -3.01,7.59 0.07,2.95 1.2,5.46 3.35,7.52 2.21,2.07 4.75,3.09 7.67,3.01 l 27.79,-0.62 c 2.96,-0.08 5.44,-1.2 7.52,-3.37 z m -35.26,5.13 c -3.23,0.06 -6.1,-1.04 -8.48,-3.33 -2.41,-2.3 -3.63,-5.05 -3.72,-8.32 -0.06,-3.18 1.08,-5.97 3.34,-8.37 2.31,-2.41 5.07,-3.65 8.31,-3.73 l 27.78,-0.64 c 3.23,-0.08 6.06,1.03 8.47,3.34 2.38,2.28 3.63,5.02 3.71,8.23 0.05,3.23 -1.05,6.05 -3.34,8.45 -2.28,2.42 -5.04,3.64 -8.3,3.72 z m 38.49,-2.07 c 2.72,-2.83 4.03,-6.2 3.93,-10.08 -0.08,-3.84 -1.56,-7.14 -4.38,-9.88 -2.85,-2.71 -6.21,-4.03 -10.09,-3.95 l -27.87,0.64 c -3.83,0.09 -7.13,1.57 -9.85,4.42 -2.76,2.87 -4.06,6.23 -3.98,10.07 0.11,3.89 1.55,7.18 4.45,9.91 2.83,2.68 6.19,3.98 10.04,3.92 l 27.87,-0.64 c 3.89,-0.1 7.17,-1.57 9.88,-4.41"
       style="fill:#ffffff;fill-opacity:1;fill-rule:nonzero;stroke:none"
       id="path282" /><path
       d="m 1814.28,2690.64 c -2.28,0.05 -4.27,-0.74 -6,-2.33 -1.69,-1.61 -2.57,-3.59 -2.65,-5.93 -0.02,-2.29 0.77,-4.3 2.39,-6.02 1.64,-1.71 3.58,-2.59 5.91,-2.64 l 27.84,-0.65 c 2.28,-0.05 4.29,0.74 6,2.38 1.71,1.62 2.61,3.6 2.64,5.88 0.07,2.36 -0.71,4.36 -2.35,6.06 -1.63,1.68 -3.61,2.55 -5.88,2.6 z m 34.69,-2.42 c 2.07,-2.17 3.09,-4.72 3.03,-7.67 -0.1,-2.91 -1.19,-5.36 -3.39,-7.46 -2.16,-2.06 -4.71,-3.07 -7.67,-2.99 l -27.75,0.64 c -2.97,0.06 -5.47,1.18 -7.56,3.36 -2.05,2.15 -3.05,4.7 -2.98,7.59 0.06,2.95 1.17,5.46 3.37,7.53 2.15,2.07 4.7,3.07 7.66,3.01 l 27.77,-0.65 c 2.94,-0.06 5.45,-1.17 7.52,-3.36 z m -35.27,5.12 c -3.25,0.09 -6.05,-1.03 -8.47,-3.3 -2.39,-2.32 -3.64,-5.07 -3.72,-8.32 -0.06,-3.21 1.04,-5.99 3.34,-8.39 2.29,-2.39 5.06,-3.63 8.3,-3.72 l 27.78,-0.63 c 3.24,-0.09 6.05,1.02 8.45,3.31 2.4,2.29 3.66,5.04 3.73,8.24 0.06,3.24 -1.03,6.06 -3.34,8.45 -2.28,2.4 -5.05,3.65 -8.28,3.73 z m 38.5,-2.04 c 2.71,-2.84 4,-6.19 3.91,-10.1 -0.07,-3.84 -1.54,-7.12 -4.37,-9.84 -2.84,-2.75 -6.22,-4.07 -10.09,-3.98 l -27.86,0.66 c -3.87,0.08 -7.14,1.56 -9.84,4.42 -2.75,2.85 -4.08,6.2 -4.01,10.04 0.11,3.9 1.59,7.2 4.44,9.91 2.89,2.71 6.23,4 10.05,3.92 l 27.88,-0.63 c 3.89,-0.1 7.17,-1.56 9.89,-4.4"
       style="fill:#ffffff;fill-opacity:1;fill-rule:nonzero;stroke:none"
       id="path284" /><path
       d="m 1815.36,2736.76 c -2.27,0.05 -4.3,-0.73 -5.99,-2.34 -1.72,-1.61 -2.59,-3.58 -2.66,-5.93 -0.04,-2.29 0.76,-4.29 2.37,-6.01 1.64,-1.71 3.61,-2.58 5.91,-2.64 l 27.87,-0.64 c 2.29,-0.07 4.28,0.72 5.98,2.36 1.72,1.64 2.61,3.6 2.65,5.91 0.04,2.32 -0.74,4.34 -2.37,6.03 -1.63,1.68 -3.58,2.57 -5.89,2.63 z m 34.69,-2.41 c 2.06,-2.16 3.08,-4.72 3.01,-7.68 -0.08,-2.9 -1.19,-5.38 -3.36,-7.45 -2.17,-2.05 -4.73,-3.06 -7.68,-3.01 l -27.77,0.65 c -2.96,0.07 -5.46,1.17 -7.54,3.35 -2.07,2.17 -3.07,4.7 -3.01,7.61 0.07,2.94 1.19,5.45 3.38,7.53 2.15,2.07 4.73,3.06 7.67,3.01 l 27.76,-0.66 c 2.94,-0.07 5.47,-1.18 7.54,-3.35 z m -35.28,5.12 c -3.26,0.07 -6.07,-1.02 -8.48,-3.33 -2.39,-2.29 -3.64,-5.06 -3.71,-8.3 -0.07,-3.19 1.06,-5.98 3.32,-8.39 2.29,-2.41 5.09,-3.63 8.31,-3.72 l 27.77,-0.64 c 3.25,-0.07 6.08,1.04 8.47,3.33 2.43,2.29 3.65,5.04 3.72,8.22 0.08,3.24 -1.04,6.06 -3.32,8.47 -2.31,2.41 -5.07,3.64 -8.3,3.72 z m 38.47,-2.05 c 2.75,-2.83 4.05,-6.2 3.94,-10.1 -0.09,-3.84 -1.55,-7.13 -4.39,-9.86 -2.85,-2.73 -6.2,-4.04 -10.08,-3.97 l -27.86,0.66 c -3.83,0.08 -7.13,1.57 -9.86,4.42 -2.72,2.86 -4.06,6.21 -3.95,10.06 0.06,3.89 1.54,7.19 4.41,9.89 2.88,2.72 6.2,4.03 10.07,3.94 l 27.83,-0.66 c 3.92,-0.1 7.21,-1.54 9.89,-4.38"
       style="fill:#ffffff;fill-opacity:1;fill-rule:nonzero;stroke:none"
       id="path286" /><path
       d="m 1816.07,2767.9 c -2.28,0.06 -4.26,-0.71 -5.98,-2.34 -1.72,-1.6 -2.62,-3.58 -2.65,-5.91 -0.04,-2.3 0.73,-4.31 2.37,-6.02 1.64,-1.7 3.6,-2.59 5.88,-2.65 l 27.85,-0.65 c 2.33,-0.04 4.32,0.74 6.03,2.38 1.7,1.63 2.61,3.61 2.65,5.9 0.05,2.34 -0.73,4.36 -2.37,6.04 -1.62,1.69 -3.61,2.56 -5.9,2.59 z m 34.68,-2.4 c 2.09,-2.18 3.09,-4.73 3.02,-7.68 -0.05,-2.89 -1.19,-5.38 -3.36,-7.45 -2.18,-2.07 -4.7,-3.09 -7.67,-3.01 l -27.77,0.66 c -2.95,0.04 -5.45,1.18 -7.53,3.35 -2.08,2.17 -3.07,4.69 -3.01,7.58 0.07,2.96 1.2,5.46 3.36,7.55 2.18,2.07 4.72,3.07 7.66,2.99 l 27.79,-0.63 c 2.94,-0.07 5.44,-1.21 7.51,-3.36 z m -35.27,5.12 c -3.23,0.07 -6.06,-1.04 -8.46,-3.32 -2.41,-2.3 -3.63,-5.07 -3.74,-8.33 -0.05,-3.17 1.08,-5.97 3.34,-8.37 2.31,-2.41 5.07,-3.66 8.3,-3.71 l 27.8,-0.65 c 3.22,-0.09 6.07,1.03 8.46,3.33 2.41,2.29 3.65,5.04 3.73,8.22 0.06,3.24 -1.03,6.08 -3.32,8.48 -2.33,2.39 -5.08,3.64 -8.32,3.71 z m 38.51,-2.05 c 2.72,-2.83 4.01,-6.21 3.9,-10.11 -0.07,-3.82 -1.53,-7.11 -4.36,-9.84 -2.86,-2.74 -6.2,-4.06 -10.11,-3.97 l -27.83,0.64 c -3.86,0.1 -7.17,1.56 -9.87,4.43 -2.74,2.86 -4.07,6.22 -3.98,10.05 0.12,3.9 1.57,7.18 4.44,9.92 2.85,2.69 6.21,3.99 10.06,3.92 l 27.84,-0.65 c 3.9,-0.1 7.19,-1.58 9.91,-4.39"
       style="fill:#ffffff;fill-opacity:1;fill-rule:nonzero;stroke:none"
       id="path288" /><path
       d="m 1816.84,2799.06 c -2.32,0.04 -4.33,-0.74 -6.03,-2.34 -1.71,-1.61 -2.6,-3.6 -2.64,-5.93 -0.06,-2.31 0.73,-4.31 2.37,-6.03 1.62,-1.7 3.58,-2.57 5.91,-2.61 l 27.81,-0.67 c 2.3,-0.04 4.33,0.74 6.01,2.38 1.75,1.63 2.61,3.6 2.65,5.89 0.06,2.34 -0.72,4.36 -2.33,6.05 -1.66,1.68 -3.64,2.56 -5.91,2.6 z m 34.65,-2.41 c 2.07,-2.18 3.07,-4.74 3.01,-7.69 -0.07,-2.89 -1.19,-5.38 -3.39,-7.45 -2.16,-2.08 -4.68,-3.06 -7.65,-3.01 l -27.77,0.65 c -2.95,0.07 -5.47,1.2 -7.54,3.37 -2.05,2.16 -3.09,4.7 -3,7.59 0.07,2.94 1.19,5.44 3.34,7.52 2.18,2.08 4.74,3.07 7.69,3.01 l 27.77,-0.64 c 2.95,-0.07 5.44,-1.18 7.54,-3.35 z m -35.29,5.13 c -3.22,0.06 -6.05,-1.03 -8.46,-3.33 -2.4,-2.3 -3.66,-5.07 -3.71,-8.32 -0.08,-3.19 1.03,-5.97 3.32,-8.37 2.31,-2.41 5.05,-3.66 8.3,-3.73 l 27.81,-0.65 c 3.23,-0.08 6.04,1.06 8.42,3.33 2.43,2.28 3.66,5.03 3.73,8.22 0.08,3.26 -1.04,6.08 -3.3,8.48 -2.32,2.4 -5.06,3.64 -8.34,3.72 z m 38.52,-2.07 c 2.68,-2.84 4,-6.2 3.92,-10.08 -0.11,-3.85 -1.55,-7.14 -4.39,-9.88 -2.85,-2.73 -6.21,-4.05 -10.1,-3.94 l -27.86,0.64 c -3.85,0.09 -7.12,1.56 -9.84,4.41 -2.75,2.86 -4.06,6.22 -4.01,10.05 0.11,3.91 1.61,7.2 4.44,9.9 2.89,2.71 6.23,4.03 10.05,3.93 l 27.88,-0.63 c 3.89,-0.11 7.19,-1.55 9.91,-4.4"
       style="fill:#ffffff;fill-opacity:1;fill-rule:nonzero;stroke:none"
       id="path290" /><path
       d="m 1817.53,2830.18 c -2.3,0.08 -4.3,-0.71 -6,-2.31 -1.72,-1.62 -2.58,-3.59 -2.65,-5.95 -0.04,-2.27 0.73,-4.29 2.37,-6 1.64,-1.72 3.6,-2.58 5.89,-2.66 l 27.87,-0.63 c 2.28,-0.04 4.27,0.74 6.01,2.37 1.7,1.63 2.57,3.61 2.64,5.9 0.04,2.34 -0.74,4.36 -2.37,6.04 -1.61,1.69 -3.58,2.57 -5.89,2.61 z m 34.69,-2.38 c 2.04,-2.18 3.07,-4.75 3,-7.69 -0.07,-2.9 -1.19,-5.39 -3.34,-7.44 -2.18,-2.08 -4.74,-3.08 -7.69,-3.02 l -27.79,0.65 c -2.94,0.07 -5.44,1.19 -7.52,3.37 -2.04,2.15 -3.1,4.69 -2.99,7.59 0.04,2.94 1.17,5.45 3.34,7.52 2.17,2.08 4.72,3.07 7.67,3.01 l 27.8,-0.63 c 2.92,-0.08 5.45,-1.2 7.52,-3.36 z m -35.29,5.11 c -3.25,0.07 -6.06,-1.03 -8.47,-3.33 -2.4,-2.3 -3.65,-5.05 -3.69,-8.29 -0.07,-3.19 1.04,-6 3.29,-8.4 2.3,-2.4 5.07,-3.64 8.34,-3.72 l 27.75,-0.66 c 3.24,-0.05 6.08,1.05 8.47,3.34 2.43,2.3 3.63,5.05 3.72,8.25 0.09,3.24 -1.05,6.06 -3.32,8.45 -2.3,2.41 -5.09,3.65 -8.3,3.71 z m 38.48,-2.05 c 2.72,-2.83 4.02,-6.21 3.95,-10.1 -0.1,-3.85 -1.57,-7.14 -4.39,-9.86 -2.86,-2.73 -6.2,-4.05 -10.1,-3.97 l -27.85,0.65 c -3.85,0.08 -7.13,1.58 -9.86,4.44 -2.73,2.86 -4.05,6.2 -3.97,10.06 0.09,3.88 1.58,7.19 4.43,9.89 2.86,2.72 6.22,4 10.07,3.93 l 27.85,-0.65 c 3.85,-0.11 7.18,-1.56 9.87,-4.39"
       style="fill:#ffffff;fill-opacity:1;fill-rule:nonzero;stroke:none"
       id="path292" /><path
       d="m 1818.59,2876.31 c -2.27,0.06 -4.25,-0.71 -5.99,-2.32 -1.73,-1.62 -2.59,-3.58 -2.66,-5.94 -0.03,-2.27 0.73,-4.28 2.39,-6 1.62,-1.72 3.6,-2.6 5.88,-2.66 l 27.85,-0.63 c 2.33,-0.05 4.3,0.73 6.02,2.36 1.71,1.63 2.6,3.61 2.64,5.89 0.05,2.35 -0.71,4.37 -2.37,6.05 -1.63,1.69 -3.59,2.56 -5.9,2.6 z m 34.68,-2.4 c 2.09,-2.17 3.09,-4.74 3.02,-7.68 -0.07,-2.89 -1.19,-5.37 -3.37,-7.44 -2.17,-2.08 -4.73,-3.09 -7.66,-3.02 l -27.79,0.64 c -2.95,0.07 -5.45,1.19 -7.5,3.37 -2.09,2.18 -3.1,4.69 -3.04,7.6 0.09,2.95 1.2,5.45 3.36,7.52 2.2,2.09 4.74,3.09 7.69,3.01 l 27.74,-0.66 c 2.98,-0.04 5.48,-1.18 7.55,-3.34 z m -35.25,5.12 c -3.25,0.08 -6.09,-1.02 -8.48,-3.33 -2.43,-2.29 -3.65,-5.06 -3.71,-8.3 -0.11,-3.19 1.03,-6 3.29,-8.39 2.33,-2.4 5.09,-3.64 8.32,-3.72 l 27.78,-0.64 c 3.24,-0.08 6.07,1.05 8.48,3.34 2.4,2.28 3.63,5.04 3.7,8.21 0.09,3.25 -1.04,6.06 -3.33,8.47 -2.29,2.4 -5.06,3.63 -8.29,3.73 z m 38.47,-2.04 c 2.7,-2.86 4.03,-6.21 3.92,-10.09 -0.09,-3.86 -1.53,-7.14 -4.37,-9.87 -2.85,-2.74 -6.21,-4.07 -10.1,-3.97 l -27.83,0.65 c -3.86,0.09 -7.15,1.55 -9.88,4.42 -2.75,2.86 -4.08,6.21 -3.98,10.06 0.12,3.9 1.58,7.19 4.43,9.9 2.85,2.69 6.21,4.01 10.08,3.93 l 27.83,-0.65 c 3.89,-0.1 7.18,-1.55 9.9,-4.38"
       style="fill:#ffffff;fill-opacity:1;fill-rule:nonzero;stroke:none"
       id="path294" /><path
       d="m 1819.36,2907.47 c -2.32,0.06 -4.33,-0.74 -6.05,-2.33 -1.71,-1.61 -2.6,-3.59 -2.64,-5.94 -0.06,-2.29 0.73,-4.3 2.37,-6.02 1.62,-1.7 3.58,-2.58 5.91,-2.63 l 27.83,-0.64 c 2.3,-0.07 4.29,0.72 6.01,2.37 1.73,1.63 2.59,3.58 2.65,5.88 0.06,2.35 -0.72,4.38 -2.35,6.06 -1.64,1.66 -3.61,2.55 -5.89,2.61 z m 34.63,-2.43 c 2.07,-2.17 3.1,-4.71 3.03,-7.65 -0.09,-2.91 -1.21,-5.4 -3.36,-7.45 -2.19,-2.09 -4.71,-3.07 -7.7,-3.02 l -27.77,0.64 c -2.96,0.06 -5.45,1.19 -7.52,3.36 -2.08,2.16 -3.09,4.71 -2.99,7.59 0.04,2.95 1.18,5.47 3.35,7.53 2.16,2.07 4.72,3.08 7.67,3.02 l 27.79,-0.64 c 2.9,-0.08 5.42,-1.2 7.5,-3.38 z m -35.27,5.14 c -3.22,0.08 -6.04,-1.02 -8.46,-3.33 -2.42,-2.3 -3.64,-5.06 -3.73,-8.3 -0.08,-3.21 1.05,-6 3.34,-8.39 2.29,-2.41 5.05,-3.64 8.3,-3.71 l 27.77,-0.65 c 3.25,-0.08 6.08,1.04 8.48,3.32 2.39,2.29 3.64,5.06 3.71,8.24 0.06,3.23 -1.04,6.07 -3.32,8.46 -2.3,2.4 -5.04,3.66 -8.32,3.71 z m 38.5,-2.07 c 2.69,-2.81 4.02,-6.18 3.92,-10.07 -0.1,-3.85 -1.54,-7.14 -4.37,-9.87 -2.82,-2.72 -6.23,-4.05 -10.1,-3.96 l -27.9,0.64 c -3.8,0.09 -7.08,1.57 -9.82,4.44 -2.73,2.86 -4.06,6.21 -3.96,10.04 0.07,3.9 1.54,7.19 4.4,9.9 2.88,2.7 6.24,4.02 10.06,3.93 l 27.86,-0.65 c 3.89,-0.09 7.19,-1.55 9.91,-4.4"
       style="fill:#ffffff;fill-opacity:1;fill-rule:nonzero;stroke:none"
       id="path296" /><path
       d="m 1820.05,2938.61 c -2.3,0.06 -4.3,-0.72 -6.02,-2.33 -1.68,-1.6 -2.58,-3.59 -2.63,-5.93 -0.04,-2.3 0.74,-4.31 2.36,-6.02 1.64,-1.71 3.61,-2.57 5.9,-2.62 l 27.85,-0.66 c 2.32,-0.05 4.33,0.73 6.02,2.37 1.73,1.66 2.58,3.6 2.65,5.89 0.04,2.35 -0.74,4.38 -2.39,6.05 -1.63,1.69 -3.58,2.55 -5.9,2.61 z m 34.65,-2.42 c 2.08,-2.16 3.09,-4.71 3.02,-7.68 -0.04,-2.87 -1.19,-5.37 -3.35,-7.44 -2.15,-2.07 -4.73,-3.06 -7.68,-3.01 l -27.76,0.65 c -2.94,0.08 -5.44,1.19 -7.53,3.37 -2.06,2.17 -3.09,4.7 -3.01,7.59 0.07,2.95 1.21,5.46 3.35,7.53 2.19,2.08 4.73,3.07 7.68,3 l 27.78,-0.64 c 2.95,-0.07 5.45,-1.18 7.5,-3.37 z m -35.27,5.15 c -3.23,0.06 -6.04,-1.05 -8.47,-3.34 -2.4,-2.3 -3.63,-5.06 -3.69,-8.29 -0.05,-3.2 1.04,-5.99 3.32,-8.41 2.3,-2.39 5.06,-3.63 8.31,-3.72 l 27.79,-0.63 c 3.22,-0.08 6.03,1.04 8.43,3.32 2.43,2.3 3.65,5.04 3.74,8.22 0.07,3.26 -1.04,6.08 -3.34,8.48 -2.29,2.4 -5.07,3.63 -8.3,3.71 z m 38.52,-2.06 c 2.7,-2.84 3.98,-6.21 3.92,-10.1 -0.1,-3.84 -1.55,-7.13 -4.4,-9.87 -2.83,-2.73 -6.2,-4.05 -10.1,-3.96 l -27.85,0.65 c -3.85,0.1 -7.13,1.57 -9.86,4.43 -2.73,2.86 -4.03,6.21 -3.95,10.06 0.07,3.88 1.56,7.18 4.41,9.89 2.88,2.69 6.24,4.02 10.07,3.92 l 27.85,-0.65 c 3.87,-0.08 7.18,-1.53 9.91,-4.37"
       style="fill:#ffffff;fill-opacity:1;fill-rule:nonzero;stroke:none"
       id="path298" /><path
       d="m 1594.79,2828.51 -8.76,-378.55 -11.51,0.26 8.76,378.56 11.51,-0.27"
       style="fill:#ffffff;fill-opacity:1;fill-rule:nonzero;stroke:none"
       id="path300" /><path
       d="m 1718.79,3156.08 c 20.55,-0.48 36.82,-17.53 36.33,-38.06 l -2.42,-104.58 c -0.45,-20.54 -17.52,-36.8 -38.06,-36.33 l -96.05,2.22 c -20.5,0.47 -36.75,17.52 -36.32,38.05 l 2.43,104.59 c 0.49,20.54 17.52,36.82 38.05,36.33 l 96.04,-2.22"
       style="fill:#cba409;fill-opacity:1;fill-rule:nonzero;stroke:none"
       id="path302" /><path
       d="m 1715.87,3150.92 c 19.34,-0.45 34.65,-16.49 34.22,-35.83 l -2.3,-98.47 c -0.44,-19.35 -16.47,-34.66 -35.81,-34.22 l -90.45,2.1 c -19.33,0.45 -34.65,16.48 -34.22,35.83 l 2.29,98.47 c 0.45,19.33 16.5,34.66 35.84,34.22 l 90.43,-2.1"
       style="fill:#ecbf0a;fill-opacity:1;fill-rule:nonzero;stroke:none"
       id="path304" /><path
       d="m 1705.76,2981.49 c -0.23,0 -0.47,0.01 -0.7,0.01 l -44.31,1.03 6.87,-0.15 0.02,1.05 36.22,-0.84 -0.02,-1.05 1.97,-0.05 c -0.02,0 -0.03,0 -0.05,0"
       style="fill:#e3c713;fill-opacity:1;fill-rule:nonzero;stroke:none"
       id="path306" /><path
       d="m 1703.86,2982.59 -36.22,0.84 0.95,41.24 36.2,-0.84 -0.93,-41.24"
       style="fill:#f5d715;fill-opacity:1;fill-rule:nonzero;stroke:none"
       id="path308" /><path
       d="m 1711.39,2982 0.01,0.41 0.58,-0.01 c 0.27,-0.01 0.54,-0.01 0.81,-0.01 0.15,0 0.3,0 0.44,0 -0.6,-0.14 -1.22,-0.28 -1.84,-0.39"
       style="fill:#e3c713;fill-opacity:1;fill-rule:nonzero;stroke:none"
       id="path310" /><path
       d="m 1712.79,2982.39 c -0.27,0 -0.54,0 -0.81,0.01 l -0.58,0.01 0.95,41.24 25.75,-0.59 -0.22,-9.37 c -0.33,-15.28 -10.79,-27.9 -24.65,-31.3 -0.14,0 -0.29,0 -0.44,0"
       style="fill:#f5d715;fill-opacity:1;fill-rule:nonzero;stroke:none"
       id="path312" /><path
       d="m 1660.09,2982.55 -36.19,0.84 0.02,1.05 36.19,-0.84 -0.02,-1.05"
       style="fill:#e3c713;fill-opacity:1;fill-rule:nonzero;stroke:none"
       id="path314" /><path
       d="m 1660.11,2983.6 -36.19,0.84 0.97,41.24 36.18,-0.83 -0.96,-41.25"
       style="fill:#f5d715;fill-opacity:1;fill-rule:nonzero;stroke:none"
       id="path316" /><path
       d="m 1616.35,2984.13 c -4.07,0.88 -7.86,2.56 -11.19,4.86 3.42,-1.93 7.19,-3.3 11.21,-3.99 l -0.02,-0.87"
       style="fill:#e3c713;fill-opacity:1;fill-rule:nonzero;stroke:none"
       id="path318" /><path
       d="m 1616.37,2985 c -4.02,0.69 -7.79,2.06 -11.21,3.99 -8.77,6.05 -14.43,16.44 -14.17,28.12 l 0.22,9.35 26.12,-0.6 -0.96,-40.86 m 121.91,45.61 -146.9,3.39 1.64,69.91 146.89,-3.41 -1.63,-69.89 m 1.76,77.43 -25.73,0.6 0.69,30.5 c 14.1,-3.21 24.62,-15.9 25.04,-31.1 m -33.27,0.78 -36.16,0.85 0.69,31.12 36.19,-0.84 -0.72,-31.13 m -43.73,1.02 -36.18,0.82 0.71,31.14 36.19,-0.84 -0.72,-31.12 m -43.73,1.02 -26.07,0.6 c 1.15,15.27 12.39,27.54 26.77,29.95 l -0.7,-30.55"
       style="fill:#f5d715;fill-opacity:1;fill-rule:nonzero;stroke:none"
       id="path320" /><path
       d="m 1711.38,2981.37 -5.57,0.12 c 1.9,0.01 3.77,0.18 5.58,0.51 l -0.01,-0.63 m -50.63,1.16 -0.66,0.02 0.66,-0.02 m -36.85,0.86 -7.56,0.17 0.01,0.57 c 1.92,-0.42 3.9,-0.66 5.93,-0.7 l 1.62,-0.04 v 0 m 125.88,39.4 -1.84,0.04 0.17,7.55 1.86,-0.04 -0.19,-7.55"
       style="fill:#b08009;fill-opacity:1;fill-rule:nonzero;stroke:none"
       id="path322" /><path
       d="m 1747.94,3022.83 -9.84,0.23 0.18,7.55 9.83,-0.23 -0.17,-7.55"
       style="fill:#cc960b;fill-opacity:1;fill-rule:nonzero;stroke:none"
       id="path324" /><path
       d="m 1587.46,3026.54 -1.71,0.04 0.18,7.55 1.7,-0.04 -0.17,-7.55"
       style="fill:#b08009;fill-opacity:1;fill-rule:nonzero;stroke:none"
       id="path326" /><path
       d="m 1591.21,3026.46 -3.75,0.08 0.17,7.55 3.75,-0.09 -0.17,-7.54"
       style="fill:#cc960b;fill-opacity:1;fill-rule:nonzero;stroke:none"
       id="path328" /><path
       d="m 1705.81,2981.49 -1.97,0.05 0.02,1.05 7.54,-0.18 -0.01,-0.41 c -1.81,-0.33 -3.68,-0.5 -5.58,-0.51 m -38.19,0.89 -6.87,0.15 -0.66,0.02 0.02,1.05 7.53,-0.17 -0.02,-1.05 m -43.72,1.01 -1.62,0.04 c -2.03,0.04 -4.01,0.28 -5.93,0.7 l 0.02,0.87 c 1.68,-0.29 3.41,-0.46 5.16,-0.5 l 2.39,-0.06 -0.02,-1.05"
       style="fill:#c49c12;fill-opacity:1;fill-rule:nonzero;stroke:none"
       id="path330" /><path
       d="m 1711.4,2982.41 -7.54,0.18 0.93,41.24 -36.2,0.84 -0.95,-41.24 -7.53,0.17 0.96,41.25 -36.18,0.83 -0.97,-41.24 -2.39,0.06 c -1.75,0.04 -3.48,0.21 -5.16,0.5 l 0.96,40.86 -26.12,0.6 0.17,7.54 146.9,-3.39 -0.18,-7.55 -25.75,0.59 -0.95,-41.24"
       style="fill:#d3a913;fill-opacity:1;fill-rule:nonzero;stroke:none"
       id="path332" /><path
       d="m 1751.59,3100.23 -1.85,0.05 0.18,7.53 1.85,-0.04 -0.18,-7.54 m -162.33,3.77 -1.71,0.04 0.17,7.55 1.71,-0.04 -0.17,-7.55 m 77.31,48.06 -2.56,0.06 v 0.01 l 2.56,-0.07 m -46.31,0.69 0.01,0.37 4.22,-0.1 c -1.43,0 -2.84,-0.09 -4.23,-0.27"
       style="fill:#b08009;fill-opacity:1;fill-rule:nonzero;stroke:none"
       id="path334" /><path
       d="m 1749.74,3100.28 -9.83,0.22 0.14,5.77 c 0.01,0.59 0.01,1.18 -0.01,1.77 l 9.88,-0.23 -0.18,-7.53 m -156.72,3.63 -3.76,0.09 0.17,7.55 3.81,-0.09 c -0.04,-0.59 -0.07,-1.19 -0.09,-1.79 l -0.13,-5.76 m 121.98,35.23 c -2.02,0.46 -4.12,0.73 -6.28,0.78 l -1.23,0.03 0.26,11.15 7.52,-0.17 -0.27,-11.79 m -43.7,1.65 -7.54,0.17 0.25,11.16 2.56,-0.06 4.98,-0.13 -0.25,-11.14 m -51.29,0.62 0.25,11.34 c 1.39,0.18 2.8,0.27 4.23,0.27 l 3.33,-0.07 -0.25,-11.15 -1.61,0.03 c -0.26,0.01 -0.51,0.01 -0.76,0.01 -1.77,0 -3.5,-0.14 -5.19,-0.43"
       style="fill:#cc960b;fill-opacity:1;fill-rule:nonzero;stroke:none"
       id="path336" /><path
       d="m 1739.91,3100.5 -146.89,3.41 0.13,5.76 c 0.02,0.6 0.05,1.2 0.09,1.79 l 26.07,-0.6 0.7,30.55 c 1.69,0.29 3.42,0.43 5.19,0.43 0.25,0 0.5,0 0.76,-0.01 l 1.61,-0.03 -0.71,-31.14 36.18,-0.82 0.72,31.12 7.54,-0.17 -0.69,-31.12 36.16,-0.85 0.72,31.13 1.23,-0.03 c 2.16,-0.05 4.26,-0.32 6.28,-0.78 l -0.69,-30.5 25.73,-0.6 c 0.02,-0.59 0.02,-1.18 0.01,-1.77 l -0.14,-5.77"
       style="fill:#d3a913;fill-opacity:1;fill-rule:nonzero;stroke:none"
       id="path338" /><path
       d="m 1933.39,2493.02 -44.14,1.03 7.07,304.29 44.12,-1.04 -7.05,-304.28"
       style="fill:#8a1725;fill-opacity:1;fill-rule:nonzero;stroke:none"
       id="path340" /><path
       d="m 1942.22,2873.67 -44.11,1.03 7.01,304.25 44.13,-1.04 -7.03,-304.24"
       style="fill:#8a1725;fill-opacity:1;fill-rule:nonzero;stroke:none"
       id="path342" /><path
       d="m 3027.06,2747.32 c 40.83,-39.21 41.29,-66.44 -5.37,-115.07 l -898.54,-936.2 c -46.68,-48.63 -112.54,-82.71 -184.36,-29.26 l -529.56,598.89 c -40.84,39.2 -39.26,59.8 7.44,108.44 l 898.54,936.2 c 46.66,48.63 69.51,53.51 110.35,14.31 l 601.5,-577.31"
       style="fill:#3d170c;fill-opacity:1;fill-rule:nonzero;stroke:none"
       id="path344" /><path
       d="m 2978.28,2741.08 c 39.46,-37.85 39.78,-64.28 -5.73,-111.69 l -876.1,-912.86 c -45.52,-47.4 -109.57,-80.78 -179.02,-29.23 l -511.05,578.84 c -39.48,37.85 -37.8,57.88 7.69,105.29 l 876.14,912.86 c 45.5,47.42 67.68,52.24 107.12,14.37 l 580.95,-557.58"
       style="fill:#250c05;fill-opacity:1;fill-rule:nonzero;stroke:none"
       id="path346" /><path
       d="m 2935.87,2742.06 c 40.86,-39.19 41.29,-66.44 -5.37,-115.05 L 2031.95,1690.8 c -46.68,-48.62 -71.57,-46.89 -112.41,-7.7 l -601.5,577.31 c -40.86,39.2 -39.25,59.82 7.41,108.46 l 898.54,936.21 c 46.66,48.61 69.54,53.48 110.38,14.28 l 601.5,-577.3"
       style="fill:#5a3114;fill-opacity:1;fill-rule:nonzero;stroke:none"
       id="path348" /><path
       d="m 2352.08,2319.25 c -87.4,-59.72 -185.76,-102.69 -289.53,-124.03 -112.61,-23.15 -238.82,-37.43 -350.04,0.6 -113.34,38.74 -198.83,117.99 -273.81,209.3 -12.21,14.85 -23.71,30.1 -34.62,45.66 l -78.63,-81.91 c -46.66,-48.64 -48.27,-69.26 -7.41,-108.46 l 601.5,-577.31 c 40.84,-39.19 65.73,-40.92 112.41,7.7 l 898.55,936.21 c 46.66,48.61 46.23,75.86 5.37,115.05 l -173.44,166.47 c -66.82,-236.75 -212.11,-453.82 -410.35,-589.28"
       style="fill:#42230d;fill-opacity:1;fill-rule:nonzero;stroke:none"
       id="path350" /><path
       d="m 2869,2690.19 c -1,-7.21 -4.34,-15.15 -10.47,-24.29 l 7.93,-5.33 c 6.65,9.91 10.73,19.16 12.01,28.3 z m -28.18,-46.06 c -1.13,-1.21 -2.29,-2.44 -3.49,-3.69 l -16.41,-17.1 6.9,-6.62 16.41,17.1 c 1.23,1.28 2.43,2.55 3.59,3.8 z m -39.88,-41.61 -19.98,-20.82 6.9,-6.61 19.98,20.81 z m -39.96,-41.63 -19.98,-20.82 6.9,-6.62 19.98,20.82 z m -39.96,-41.64 -19.98,-20.81 6.9,-6.62 19.98,20.81 z m -39.96,-41.63 -19.98,-20.82 6.9,-6.62 19.98,20.82 z m -39.95,-41.64 -19.98,-20.81 6.9,-6.62 19.98,20.82 z m -39.96,-41.63 -19.98,-20.82 6.9,-6.62 19.98,20.82 z m -39.96,-41.63 -19.98,-20.82 6.9,-6.62 19.98,20.82 z m -39.95,-41.64 -19.99,-20.82 6.9,-6.61 19.98,20.81 z m -39.97,-41.63 -19.97,-20.82 6.9,-6.62 19.97,20.82 z m -39.95,-41.64 -19.98,-20.81 6.9,-6.62 19.98,20.81 z m -39.96,-41.63 -19.98,-20.82 6.9,-6.62 19.98,20.82 z m -39.95,-41.64 -19.98,-20.81 6.9,-6.62 19.98,20.82 z m -39.96,-41.63 -19.98,-20.82 6.9,-6.62 19.97,20.82 z m -39.96,-41.64 -19.98,-20.81 6.9,-6.62 19.98,20.82 z m -39.96,-41.63 -19.98,-20.82 6.9,-6.61 19.98,20.81 z m -39.96,-41.63 -19.97,-20.82 6.9,-6.62 19.97,20.82 z m -39.95,-41.64 -19.98,-20.82 6.9,-6.61 19.98,20.81 z m -39.96,-41.63 -19.98,-20.82 6.9,-6.62 19.98,20.82 z m -39.96,-41.64 -19.98,-20.81 6.9,-6.62 19.98,20.81 z m -39.96,-41.63 -19.98,-20.82 6.9,-6.62 19.98,20.82 z m -40.14,-40.93 c -8.32,-7.46 -15.69,-12.69 -22.34,-15.9 l 4.16,-8.6 c 7.8,3.77 15.81,9.54 24.56,17.38 z m -47.01,-18.93 c -7.05,1.88 -14.57,6.28 -23.02,13.3 l -6.11,-7.37 c 9.07,-7.5 17.67,-12.74 26.66,-15.16 z m -43.87,32.73 -20.82,19.97 -6.62,-6.89 20.82,-19.98 z m -41.63,39.95 -20.82,19.98 -6.62,-6.89 20.81,-19.98 z m -41.63,39.96 -20.82,19.98 -6.63,-6.9 20.82,-19.97 z m -41.64,39.96 -20.82,19.98 -6.62,-6.9 20.81,-19.98 z m -41.63,39.96 -20.82,19.98 -6.63,-6.9 20.82,-19.98 z m -41.64,39.96 -20.81,19.98 -6.63,-6.9 20.82,-19.98 z m -41.63,39.96 -20.82,19.98 -6.62,-6.9 20.81,-19.98 z m -41.63,39.96 -20.82,19.97 -6.62,-6.89 20.81,-19.98 z m -41.64,39.95 -20.81,19.98 -6.63,-6.89 20.82,-19.98 z m -41.63,39.96 -20.81,19.98 -6.63,-6.9 20.81,-19.97 z m -41.64,39.96 -20.81,19.98 -6.63,-6.9 20.82,-19.98 z m -41.63,39.96 -20.81,19.98 -6.63,-6.9 20.82,-19.98 z m -41.63,39.96 -2.37,2.27 c -7.06,6.78 -12.46,12.83 -16.19,18.38 l -7.94,-5.32 c 4.32,-6.42 10.17,-12.9 17.5,-19.95 l 2.37,-2.28 z m -24.79,44.36 c 1.17,6.71 4.92,14.39 11.78,23.62 l -7.69,5.69 c -7.31,-9.89 -11.93,-18.77 -13.51,-27.66 l 9.43,-1.65 z m 30.19,45.05 2.29,2.4 17.65,18.41 -6.89,6.61 -17.66,-18.4 -2.33,-2.44 z m 39.93,41.62 19.98,20.82 -6.9,6.62 -19.98,-20.82 z m 39.95,41.64 19.98,20.81 -6.9,6.62 -19.98,-20.81 z m 39.96,41.63 19.98,20.82 -6.9,6.62 -19.98,-20.82 z m 39.96,41.64 19.98,20.81 -6.9,6.62 -19.98,-20.82 z m 39.96,41.63 19.97,20.82 -6.89,6.62 -19.98,-20.82 z m 39.96,41.63 19.98,20.82 -6.9,6.62 -19.98,-20.82 z m 39.95,41.64 19.98,20.81 -6.9,6.62 -19.98,-20.82 z m 39.96,41.63 19.98,20.82 -6.9,6.62 -19.98,-20.82 z m 39.96,41.63 19.98,20.82 -6.9,6.62 -19.98,-20.82 z m 39.96,41.64 19.97,20.82 -6.89,6.61 -19.98,-20.81 z m 39.96,41.63 19.98,20.82 -6.9,6.62 -19.98,-20.82 z m 39.95,41.64 19.98,20.81 -6.9,6.62 -19.98,-20.81 z m 39.96,41.63 19.98,20.82 -6.9,6.61 -19.98,-20.81 z m 39.96,41.63 19.98,20.82 -6.9,6.62 -19.98,-20.82 z m 39.96,41.64 19.97,20.81 -6.89,6.62 -19.98,-20.81 z m 39.96,41.63 19.98,20.82 -6.9,6.62 -19.98,-20.82 z m 39.95,41.64 19.98,20.81 -6.9,6.62 -19.98,-20.82 z m 39.96,41.63 19.98,20.82 -6.9,6.62 -19.98,-20.82 z m 39.96,41.63 19.98,20.82 -6.9,6.62 -19.98,-20.82 z m 39.96,41.64 19.98,20.81 -6.9,6.62 -19.98,-20.82 z m 40.14,41.03 c 8.22,7.58 15.46,13.14 21.99,16.72 l -4.61,8.38 c -7.54,-4.15 -15.3,-10.18 -23.86,-18.07 z m 46.33,21.21 c 6.85,-1.56 14.3,-5.76 22.9,-13.01 l 6.16,7.32 c -9.26,7.78 -17.92,12.93 -26.92,15.01 z m 43.7,-32.54 20.81,-19.98 6.63,6.89 -20.82,19.98 z m 41.63,-39.96 20.81,-19.98 6.63,6.89 -20.82,19.98 z m 41.63,-39.96 20.82,-19.98 6.62,6.9 -20.82,19.97 z m 41.63,-39.96 20.82,-19.98 6.62,6.89 -20.81,19.98 z m 41.63,-39.96 20.82,-19.98 6.63,6.9 -20.82,19.98 z m 41.64,-39.96 20.81,-19.98 6.63,6.9 -20.81,19.98 z m 41.63,-39.96 20.82,-19.98 6.62,6.9 -20.81,19.98 z m 41.63,-39.96 20.82,-19.98 6.62,6.9 -20.81,19.98 z m 41.64,-39.96 20.81,-19.98 6.63,6.9 -20.82,19.98 z m 41.63,-39.96 20.81,-19.98 6.63,6.9 -20.82,19.98 z m 41.63,-39.96 20.82,-19.98 6.62,6.9 -20.82,19.98 z m 41.63,-39.96 20.82,-19.98 6.63,6.9 -20.82,19.98 z m 41.64,-39.96 0.38,-0.36 c 7.87,-7.55 13.75,-14.5 17.62,-21.07 l 8.23,4.87 c -4.52,7.65 -10.98,15.17 -19.23,23.1 l -0.38,0.36 -6.62,-6.9"
       style="fill:#f3d28b;fill-opacity:1;fill-rule:nonzero;stroke:none"
       id="path352" /><path
       d="m 2799.61,2960.77 -285.33,-297.3 c -13.22,-13.78 -39.86,-9.67 -59.49,9.18 l -100.11,96.08 c -19.65,18.85 -24.85,45.29 -11.62,59.08 l 285.33,297.31 c 13.23,13.76 184.45,-150.57 171.22,-164.35"
       style="fill:#46250f;fill-opacity:1;fill-rule:nonzero;stroke:none"
       id="path354" /><path
       d="m 2721.59,2925.95 -19.87,-20.7 6.9,-6.61 19.87,20.69 z m -39.73,-41.39 -19.86,-20.7 6.9,-6.62 19.86,20.7 z m -39.73,-41.4 -19.86,-20.69 6.9,-6.62 19.86,20.7 z m -39.72,-41.39 -19.86,-20.7 6.9,-6.61 19.86,20.69 z m -39.72,-41.39 -19.87,-20.7 6.9,-6.62 19.86,20.7 z m -39.73,-41.4 -18.24,-19 -1.39,-1.32 6.28,-7.22 2.01,1.92 18.24,19.01 z m -42.43,-24.96 c -6.21,1.44 -12.51,4.76 -17.88,9.93 l -3.92,3.76 -6.61,-6.9 3.91,-3.75 c 6.58,-6.33 14.38,-10.5 22.33,-12.35 z m -42.5,33.55 -20.7,19.86 -6.62,-6.9 20.71,-19.86 z m -41.4,39.72 -11.01,10.56 c -3.01,2.9 -5.46,6.11 -7.33,9.45 l -8.34,-4.66 c 2.33,-4.18 5.35,-8.14 9.05,-11.68 l 11.01,-10.57 6.63,6.9 z m -21.71,43.93 c 1,3.21 2.64,6.09 5,8.54 l 11.4,11.89 -6.89,6.62 -11.41,-11.88 c -3.42,-3.56 -5.83,-7.8 -7.23,-12.34 z m 36.27,41.12 19.86,20.7 -6.89,6.62 -19.87,-20.69 z m 39.73,41.39 19.86,20.69 -6.9,6.63 -19.86,-20.7 z m 39.73,41.39 19.86,20.69 -6.9,6.63 -19.86,-20.7 z m 39.73,41.39 19.86,20.69 -6.9,6.63 -19.86,-20.7 z m 39.73,41.39 19.86,20.69 -6.9,6.63 -19.86,-20.7 z m 39.72,41.39 19.87,20.69 -6.9,6.63 -19.87,-20.7 z m 37.73,21.45 c 6.27,-4.01 14.08,-9.89 22.56,-16.87 l 6.08,7.38 c -8.69,7.14 -16.7,13.2 -23.49,17.54 l -5.16,-8.05 z m 44.06,-35.59 c 6.94,-6.34 13.94,-13 20.69,-19.68 l 6.73,6.79 c -6.84,6.78 -13.94,13.52 -20.98,19.95 z m 40.53,-40.19 c 7.19,-7.81 13.52,-15.18 18.4,-21.52 l 7.58,5.82 c -5.13,6.67 -11.62,14.22 -18.95,22.18 l -7.04,-6.47 z m 29.16,-37.62 -19.86,-20.69 6.9,-6.62 19.86,20.69 z"
       style="fill:#f3d28b;fill-opacity:1;fill-rule:nonzero;stroke:none"
       id="path356" /><path
       d="m 2548.86,2874.95 c 28.57,-27.43 29.51,-72.83 2.08,-101.41 -27.42,-28.57 -72.83,-29.5 -101.38,-2.08 -28.57,27.42 -29.51,72.83 -2.09,101.4 27.42,28.58 72.8,29.5 101.39,2.09"
       style="fill:#fbc313;fill-opacity:1;fill-rule:nonzero;stroke:none"
       id="path358" /><path
       d="m 2519.5,2867.35 c 18.29,-17.56 18.91,-46.61 1.35,-64.92 -17.61,-18.31 -46.66,-18.91 -64.95,-1.34 -18.3,17.56 -18.9,46.63 -1.33,64.94 17.57,18.29 46.65,18.89 64.93,1.32"
       style="fill:#fee80e;fill-opacity:1;fill-rule:nonzero;stroke:none"
       id="path360" /><path
       d="m 2975.45,2397.63 -137.52,366 c -64.16,168.33 -186.05,156.46 -186.05,156.46 l -364.35,34.67 c -71,-249.53 277.28,-303.95 277.28,-303.95 l 44.38,-159.97 c 0,0 -216.94,-252.52 -31.06,-538.74 l 397.32,445.53"
       style="fill:#f9b095;fill-opacity:1;fill-rule:nonzero;stroke:none"
       id="path362" /><path
       d="m 1562.43,3107.28 c 35.01,-34.45 35.52,-90.79 1.1,-125.84 -34.5,-35.06 -90.81,-35.53 -125.84,-1.09 l -176.09,131.46 c -35.05,34.44 -35.53,90.79 -1.08,125.83 l 41.34,42.56 c 34.41,35.06 90.76,35.54 125.82,1.1 l 134.75,-174.02"
       style="fill:#f9b095;fill-opacity:1;fill-rule:nonzero;stroke:none"
       id="path364" /><path
       d="m 1511.95,2790.41 c 33.04,-32.47 33.49,-85.58 1.05,-118.62 -32.5,-33.05 -85.6,-33.5 -118.63,-1.02 l -165.96,123.92 c -33.03,32.46 -33.5,85.56 -1.04,118.59 l 38.95,40.13 c 32.47,33.03 85.58,33.5 118.6,1.04 l 127.03,-164.04"
       style="fill:#f9b095;fill-opacity:1;fill-rule:nonzero;stroke:none"
       id="path366" /><path
       d="m 1518.19,2465.29 c 33.03,-32.48 33.5,-85.58 1.04,-118.63 -32.49,-33.03 -85.59,-33.48 -118.62,-1.02 l -121.66,74.63 c -33.06,32.48 -15.49,103.61 16.99,136.66 l 20.92,22.08 c 32.48,33.04 85.57,33.5 118.62,1.03 l 82.71,-114.75"
       style="fill:#f9b095;fill-opacity:1;fill-rule:nonzero;stroke:none"
       id="path368" /><path
       d="m 2622.09,2483.79 -31.48,195.29 c 0,0 -319.85,50 -283.94,273.86 l -19.14,1.82 c -71,-249.53 277.28,-303.95 277.28,-303.95 l 31.48,-159.97 c 0,0 -241.08,-298.03 30.44,-630.05 0,0 -217.54,306.2 -4.64,623"
       style="fill:#e6a288;fill-opacity:1;fill-rule:nonzero;stroke:none"
       id="path370" /></g></svg>